<?xml version="1.0"?>
<!DOCTYPE svg PUBLIC "-//W3C//DTD SVG 1.1//EN" "http://www.w3.org/Graphics/SVG/1.1/DTD/svg11.dtd">
<svg width="0.0mm" height="170.728281099mm" viewBox="0 0 0.0 170.728281099" xmlns="http://www.w3.org/2000/svg" version="1.1">
<g id="Sketch001" transform="translate(-100.000000,81.250000) scale(1,-1)">
<path id="Sketch001_w0000"  d="M 100.0 -77.7309237995 L 100.0 81.25 L 100.0 81.25 L 100.0 -89.4782810993 L 100.0 -77.7309237995 " stroke="#000000" stroke-width="0.35 px" style="stroke-width:0.35;stroke-miterlimit:4;stroke-dasharray:none;fill:none;fill-rule: evenodd "/>
<path id="Sketch001_w0001"  d="M 100.0 -63.82 M 100.0 -63.82 L 100.0 -60.780411212 L 100.0 -36.960411212 M 100.0 -36.960411212 L 100.0 -40.0 L 100.0 -63.82 " stroke="#000000" stroke-width="0.35 px" style="stroke-width:0.35;stroke-miterlimit:4;stroke-dasharray:none;fill:none;fill-rule: evenodd "/>
<path id="Sketch001_w0002"  d="M 100.0 -43.82 M 100.0 -43.82 L 100.0 -40.780411212 L 100.0 -16.960411212 M 100.0 -16.960411212 L 100.0 -20.0 L 100.0 -43.82 " stroke="#000000" stroke-width="0.35 px" style="stroke-width:0.35;stroke-miterlimit:4;stroke-dasharray:none;fill:none;fill-rule: evenodd "/>
<path id="Sketch001_w0003"  d="M 100.0 -23.82 M 100.0 -23.82 L 100.0 -20.780411212 L 100.0 3.03958878798 M 100.0 3.03958878798 L 100.0 1.55431223448e-15 L 100.0 -23.82 " stroke="#000000" stroke-width="0.35 px" style="stroke-width:0.35;stroke-miterlimit:4;stroke-dasharray:none;fill:none;fill-rule: evenodd "/>
<path id="Sketch001_w0004"  d="M 100.0 -2.68 M 100.0 -2.68 L 100.0 0.592858078194 L 100.0 23.2728580782 M 100.0 23.2728580782 L 100.0 20.0 L 100.0 -2.68 " stroke="#000000" stroke-width="0.35 px" style="stroke-width:0.35;stroke-miterlimit:4;stroke-dasharray:none;fill:none;fill-rule: evenodd "/>
<path id="Sketch001_w0005"  d="M 100.0 17.32 M 100.0 17.32 L 100.0 20.5928580782 L 100.0 43.2728580782 M 100.0 43.2728580782 L 100.0 40.0 L 100.0 17.32 " stroke="#000000" stroke-width="0.35 px" style="stroke-width:0.35;stroke-miterlimit:4;stroke-dasharray:none;fill:none;fill-rule: evenodd "/>
<path id="Sketch001_w0006"  d="M 100.0 37.32 M 100.0 37.32 L 100.0 40.5928580782 L 100.0 63.2728580782 M 100.0 63.2728580782 L 100.0 60.0 L 100.0 37.32 " stroke="#000000" stroke-width="0.35 px" style="stroke-width:0.35;stroke-miterlimit:4;stroke-dasharray:none;fill:none;fill-rule: evenodd "/>
<path id="Sketch001_w0007"  d="M 100.0 -81.25 L 100.0 -81.25 " stroke="#000000" stroke-width="0.35 px" style="stroke-width:0.35;stroke-miterlimit:4;stroke-dasharray:none;fill:none;fill-rule: evenodd "/>
<title>Sketch001</title>
</g>
</svg>