G04 MADE WITH FRITZING*
G04 WWW.FRITZING.ORG*
G04 DOUBLE SIDED*
G04 HOLES PLATED*
G04 CONTOUR ON CENTER OF CONTOUR VECTOR*
%ASAXBY*%
%FSLAX23Y23*%
%MOIN*%
%OFA0B0*%
%SFA1.0B1.0*%
%ADD10R,0.118110X0.188976*%
%ADD11R,0.039370X0.008268*%
%ADD12R,0.051181X0.074803*%
%ADD13R,0.047244X0.031496*%
%ADD14R,0.062992X0.074803*%
%ADD15R,0.055118X0.013780*%
%ADD16R,0.074803X0.070866*%
%LNPASTEMASK0*%
G90*
G70*
G54D10*
X2388Y1085D03*
G54D11*
X2495Y947D03*
X2495Y1006D03*
X2495Y927D03*
X2495Y908D03*
X2495Y986D03*
X2495Y967D03*
X2495Y1183D03*
X2495Y1242D03*
X2495Y1163D03*
X2495Y1144D03*
X2495Y1222D03*
X2495Y1203D03*
X2495Y1065D03*
X2495Y1124D03*
X2495Y1045D03*
X2495Y1026D03*
X2495Y1104D03*
X2495Y1085D03*
X2495Y1262D03*
X2282Y947D03*
X2282Y1006D03*
X2282Y927D03*
X2282Y908D03*
X2282Y986D03*
X2282Y967D03*
X2282Y1183D03*
X2282Y1242D03*
X2282Y1163D03*
X2282Y1144D03*
X2282Y1222D03*
X2282Y1203D03*
X2282Y1065D03*
X2282Y1124D03*
X2282Y1045D03*
X2282Y1026D03*
X2282Y1104D03*
X2282Y1085D03*
X2282Y1262D03*
G54D10*
X2388Y1085D03*
G54D11*
X2495Y947D03*
X2495Y1006D03*
X2495Y927D03*
X2495Y908D03*
X2495Y986D03*
X2495Y967D03*
X2495Y1183D03*
X2495Y1242D03*
X2495Y1163D03*
X2495Y1144D03*
X2495Y1222D03*
X2495Y1203D03*
X2495Y1065D03*
X2495Y1124D03*
X2495Y1045D03*
X2495Y1026D03*
X2495Y1104D03*
X2495Y1085D03*
X2495Y1262D03*
X2282Y947D03*
X2282Y1006D03*
X2282Y927D03*
X2282Y908D03*
X2282Y986D03*
X2282Y967D03*
X2282Y1183D03*
X2282Y1242D03*
X2282Y1163D03*
X2282Y1144D03*
X2282Y1222D03*
X2282Y1203D03*
X2282Y1065D03*
X2282Y1124D03*
X2282Y1045D03*
X2282Y1026D03*
X2282Y1104D03*
X2282Y1085D03*
X2282Y1262D03*
G54D10*
X5547Y1084D03*
G54D11*
X5653Y946D03*
X5653Y1005D03*
X5653Y926D03*
X5653Y907D03*
X5653Y985D03*
X5653Y966D03*
X5653Y1182D03*
X5653Y1241D03*
X5653Y1163D03*
X5653Y1143D03*
X5653Y1222D03*
X5653Y1202D03*
X5653Y1064D03*
X5653Y1123D03*
X5653Y1044D03*
X5653Y1025D03*
X5653Y1103D03*
X5653Y1084D03*
X5653Y1261D03*
X5441Y946D03*
X5441Y1005D03*
X5441Y926D03*
X5441Y907D03*
X5441Y985D03*
X5441Y966D03*
X5441Y1182D03*
X5441Y1241D03*
X5441Y1163D03*
X5441Y1143D03*
X5441Y1222D03*
X5441Y1202D03*
X5441Y1064D03*
X5441Y1123D03*
X5441Y1044D03*
X5441Y1025D03*
X5441Y1103D03*
X5441Y1084D03*
X5441Y1261D03*
G54D10*
X5547Y1084D03*
G54D11*
X5653Y946D03*
X5653Y1005D03*
X5653Y926D03*
X5653Y907D03*
X5653Y985D03*
X5653Y966D03*
X5653Y1182D03*
X5653Y1241D03*
X5653Y1163D03*
X5653Y1143D03*
X5653Y1222D03*
X5653Y1202D03*
X5653Y1064D03*
X5653Y1123D03*
X5653Y1044D03*
X5653Y1025D03*
X5653Y1103D03*
X5653Y1084D03*
X5653Y1261D03*
X5441Y946D03*
X5441Y1005D03*
X5441Y926D03*
X5441Y907D03*
X5441Y985D03*
X5441Y966D03*
X5441Y1182D03*
X5441Y1241D03*
X5441Y1163D03*
X5441Y1143D03*
X5441Y1222D03*
X5441Y1202D03*
X5441Y1064D03*
X5441Y1123D03*
X5441Y1044D03*
X5441Y1025D03*
X5441Y1103D03*
X5441Y1084D03*
X5441Y1261D03*
G54D12*
X851Y442D03*
X634Y442D03*
X851Y568D03*
X634Y568D03*
X851Y442D03*
X634Y442D03*
X851Y568D03*
X634Y568D03*
G54D13*
X856Y703D03*
X856Y774D03*
X777Y703D03*
X777Y774D03*
G54D14*
X2145Y920D03*
X2023Y920D03*
X2145Y743D03*
X2023Y743D03*
X5271Y892D03*
X5149Y892D03*
X5275Y753D03*
X5153Y753D03*
G54D15*
X7667Y1197D03*
X7667Y1095D03*
X7667Y1172D03*
X7667Y1146D03*
X7667Y1121D03*
G54D16*
X7771Y1304D03*
X7771Y989D03*
G04 End of PasteMask0*
M02*