G04 MADE WITH FRITZING*
G04 WWW.FRITZING.ORG*
G04 DOUBLE SIDED*
G04 HOLES PLATED*
G04 CONTOUR ON CENTER OF CONTOUR VECTOR*
%ASAXBY*%
%FSLAX23Y23*%
%MOIN*%
%OFA0B0*%
%SFA1.0B1.0*%
%ADD10R,0.039361X0.059056*%
%ADD11R,0.039389X0.059056*%
%ADD12R,0.039375X0.059056*%
%ADD13R,0.035433X0.031496*%
%ADD14R,0.074803X0.062992*%
%LNPASTEMASK1*%
G90*
G70*
G54D10*
X962Y1471D03*
G54D11*
X1025Y1471D03*
G54D12*
X1088Y1471D03*
X1088Y1664D03*
G54D11*
X1025Y1664D03*
G54D10*
X962Y1664D03*
X4112Y1471D03*
G54D11*
X4175Y1471D03*
G54D12*
X4238Y1471D03*
X4238Y1664D03*
G54D11*
X4175Y1664D03*
G54D10*
X4112Y1664D03*
X4116Y5369D03*
G54D11*
X4179Y5369D03*
G54D12*
X4242Y5369D03*
X4242Y5562D03*
G54D11*
X4179Y5562D03*
G54D10*
X4116Y5562D03*
X966Y5369D03*
G54D11*
X1029Y5369D03*
G54D12*
X1092Y5369D03*
X1092Y5562D03*
G54D11*
X1029Y5562D03*
G54D10*
X966Y5562D03*
X4505Y1471D03*
G54D11*
X4568Y1471D03*
G54D12*
X4631Y1471D03*
X4631Y1664D03*
G54D11*
X4568Y1664D03*
G54D10*
X4505Y1664D03*
X4509Y5369D03*
G54D11*
X4572Y5369D03*
G54D12*
X4635Y5369D03*
X4635Y5562D03*
G54D11*
X4572Y5562D03*
G54D10*
X4509Y5562D03*
X1356Y1471D03*
G54D11*
X1419Y1471D03*
G54D12*
X1482Y1471D03*
X1482Y1664D03*
G54D11*
X1419Y1664D03*
G54D10*
X1356Y1664D03*
X1360Y5369D03*
G54D11*
X1423Y5369D03*
G54D12*
X1486Y5369D03*
X1486Y5562D03*
G54D11*
X1423Y5562D03*
G54D10*
X1360Y5562D03*
X1749Y1471D03*
G54D11*
X1812Y1471D03*
G54D12*
X1875Y1471D03*
X1875Y1664D03*
G54D11*
X1812Y1664D03*
G54D10*
X1749Y1664D03*
X4903Y5369D03*
G54D11*
X4966Y5369D03*
G54D12*
X5029Y5369D03*
X5029Y5562D03*
G54D11*
X4966Y5562D03*
G54D10*
X4903Y5562D03*
X4899Y1471D03*
G54D11*
X4962Y1471D03*
G54D12*
X5025Y1471D03*
X5025Y1664D03*
G54D11*
X4962Y1664D03*
G54D10*
X4899Y1664D03*
X1753Y5369D03*
G54D11*
X1816Y5369D03*
G54D12*
X1879Y5369D03*
X1879Y5562D03*
G54D11*
X1816Y5562D03*
G54D10*
X1753Y5562D03*
X5293Y1471D03*
G54D11*
X5356Y1471D03*
G54D12*
X5419Y1471D03*
X5419Y1664D03*
G54D11*
X5356Y1664D03*
G54D10*
X5293Y1664D03*
X5297Y5369D03*
G54D11*
X5360Y5369D03*
G54D12*
X5423Y5369D03*
X5423Y5562D03*
G54D11*
X5360Y5562D03*
G54D10*
X5297Y5562D03*
X2147Y5369D03*
G54D11*
X2210Y5369D03*
G54D12*
X2273Y5369D03*
X2273Y5562D03*
G54D11*
X2210Y5562D03*
G54D10*
X2147Y5562D03*
X2143Y1471D03*
G54D11*
X2206Y1471D03*
G54D12*
X2269Y1471D03*
X2269Y1664D03*
G54D11*
X2206Y1664D03*
G54D10*
X2143Y1664D03*
X2541Y5369D03*
G54D11*
X2604Y5369D03*
G54D12*
X2667Y5369D03*
X2667Y5562D03*
G54D11*
X2604Y5562D03*
G54D10*
X2541Y5562D03*
X2537Y1471D03*
G54D11*
X2600Y1471D03*
G54D12*
X2663Y1471D03*
X2663Y1664D03*
G54D11*
X2600Y1664D03*
G54D10*
X2537Y1664D03*
X5690Y5369D03*
G54D11*
X5753Y5369D03*
G54D12*
X5816Y5369D03*
X5816Y5562D03*
G54D11*
X5753Y5562D03*
G54D10*
X5690Y5562D03*
X5686Y1471D03*
G54D11*
X5749Y1471D03*
G54D12*
X5812Y1471D03*
X5812Y1664D03*
G54D11*
X5749Y1664D03*
G54D10*
X5686Y1664D03*
X6080Y1471D03*
G54D11*
X6143Y1471D03*
G54D12*
X6206Y1471D03*
X6206Y1664D03*
G54D11*
X6143Y1664D03*
G54D10*
X6080Y1664D03*
X6084Y5369D03*
G54D11*
X6147Y5369D03*
G54D12*
X6210Y5369D03*
X6210Y5562D03*
G54D11*
X6147Y5562D03*
G54D10*
X6084Y5562D03*
X2930Y1471D03*
G54D11*
X2993Y1471D03*
G54D12*
X3056Y1471D03*
X3056Y1664D03*
G54D11*
X2993Y1664D03*
G54D10*
X2930Y1664D03*
X2935Y5369D03*
G54D11*
X2998Y5369D03*
G54D12*
X3061Y5369D03*
X3061Y5562D03*
G54D11*
X2998Y5562D03*
G54D10*
X2935Y5562D03*
X3324Y1471D03*
G54D11*
X3387Y1471D03*
G54D12*
X3450Y1471D03*
X3450Y1664D03*
G54D11*
X3387Y1664D03*
G54D10*
X3324Y1664D03*
X6478Y5369D03*
G54D11*
X6541Y5369D03*
G54D12*
X6604Y5369D03*
X6604Y5562D03*
G54D11*
X6541Y5562D03*
G54D10*
X6478Y5562D03*
X3328Y5369D03*
G54D11*
X3391Y5369D03*
G54D12*
X3454Y5369D03*
X3454Y5562D03*
G54D11*
X3391Y5562D03*
G54D10*
X3328Y5562D03*
X6474Y1471D03*
G54D11*
X6537Y1471D03*
G54D12*
X6600Y1471D03*
X6600Y1664D03*
G54D11*
X6537Y1664D03*
G54D10*
X6474Y1664D03*
X3722Y5369D03*
G54D11*
X3785Y5369D03*
G54D12*
X3848Y5369D03*
X3848Y5562D03*
G54D11*
X3785Y5562D03*
G54D10*
X3722Y5562D03*
X6867Y1471D03*
G54D11*
X6930Y1471D03*
G54D12*
X6993Y1471D03*
X6993Y1664D03*
G54D11*
X6930Y1664D03*
G54D10*
X6867Y1664D03*
X6872Y5369D03*
G54D11*
X6935Y5369D03*
G54D12*
X6998Y5369D03*
X6998Y5562D03*
G54D11*
X6935Y5562D03*
G54D10*
X6872Y5562D03*
X3718Y1471D03*
G54D11*
X3781Y1471D03*
G54D12*
X3844Y1471D03*
X3844Y1664D03*
G54D11*
X3781Y1664D03*
G54D10*
X3718Y1664D03*
X964Y3007D03*
G54D11*
X1027Y3007D03*
G54D12*
X1090Y3007D03*
X1090Y3200D03*
G54D11*
X1027Y3200D03*
G54D10*
X964Y3200D03*
X961Y2218D03*
G54D11*
X1024Y2218D03*
G54D12*
X1087Y2218D03*
X1087Y2411D03*
G54D11*
X1024Y2411D03*
G54D10*
X961Y2411D03*
X963Y3792D03*
G54D11*
X1026Y3792D03*
G54D12*
X1089Y3792D03*
X1089Y3985D03*
G54D11*
X1026Y3985D03*
G54D10*
X963Y3985D03*
X966Y4581D03*
G54D11*
X1029Y4581D03*
G54D12*
X1092Y4581D03*
X1092Y4774D03*
G54D11*
X1029Y4774D03*
G54D10*
X966Y4774D03*
X4111Y2218D03*
G54D11*
X4174Y2218D03*
G54D12*
X4237Y2218D03*
X4237Y2411D03*
G54D11*
X4174Y2411D03*
G54D10*
X4111Y2411D03*
X4114Y3007D03*
G54D11*
X4177Y3007D03*
G54D12*
X4240Y3007D03*
X4240Y3200D03*
G54D11*
X4177Y3200D03*
G54D10*
X4114Y3200D03*
X4113Y3792D03*
G54D11*
X4176Y3792D03*
G54D12*
X4239Y3792D03*
X4239Y3985D03*
G54D11*
X4176Y3985D03*
G54D10*
X4113Y3985D03*
X4115Y4581D03*
G54D11*
X4178Y4581D03*
G54D12*
X4241Y4581D03*
X4241Y4774D03*
G54D11*
X4178Y4774D03*
G54D10*
X4115Y4774D03*
X4114Y3401D03*
G54D11*
X4177Y3401D03*
G54D12*
X4240Y3401D03*
X4240Y3594D03*
G54D11*
X4177Y3594D03*
G54D10*
X4114Y3594D03*
X4111Y2612D03*
G54D11*
X4174Y2612D03*
G54D12*
X4237Y2612D03*
X4237Y2805D03*
G54D11*
X4174Y2805D03*
G54D10*
X4111Y2805D03*
X4113Y4186D03*
G54D11*
X4176Y4186D03*
G54D12*
X4239Y4186D03*
X4239Y4379D03*
G54D11*
X4176Y4379D03*
G54D10*
X4113Y4379D03*
X4115Y4975D03*
G54D11*
X4178Y4975D03*
G54D12*
X4241Y4975D03*
X4241Y5168D03*
G54D11*
X4178Y5168D03*
G54D10*
X4115Y5168D03*
X964Y3401D03*
G54D11*
X1027Y3401D03*
G54D12*
X1090Y3401D03*
X1090Y3594D03*
G54D11*
X1027Y3594D03*
G54D10*
X964Y3594D03*
X961Y2612D03*
G54D11*
X1024Y2612D03*
G54D12*
X1087Y2612D03*
X1087Y2805D03*
G54D11*
X1024Y2805D03*
G54D10*
X961Y2805D03*
X963Y4186D03*
G54D11*
X1026Y4186D03*
G54D12*
X1089Y4186D03*
X1089Y4379D03*
G54D11*
X1026Y4379D03*
G54D10*
X963Y4379D03*
X966Y4975D03*
G54D11*
X1029Y4975D03*
G54D12*
X1092Y4975D03*
X1092Y5168D03*
G54D11*
X1029Y5168D03*
G54D10*
X966Y5168D03*
X4508Y3007D03*
G54D11*
X4571Y3007D03*
G54D12*
X4634Y3007D03*
X4634Y3200D03*
G54D11*
X4571Y3200D03*
G54D10*
X4508Y3200D03*
X4505Y2218D03*
G54D11*
X4568Y2218D03*
G54D12*
X4631Y2218D03*
X4631Y2411D03*
G54D11*
X4568Y2411D03*
G54D10*
X4505Y2411D03*
X4506Y3792D03*
G54D11*
X4569Y3792D03*
G54D12*
X4632Y3792D03*
X4632Y3985D03*
G54D11*
X4569Y3985D03*
G54D10*
X4506Y3985D03*
X4509Y4581D03*
G54D11*
X4572Y4581D03*
G54D12*
X4635Y4581D03*
X4635Y4774D03*
G54D11*
X4572Y4774D03*
G54D10*
X4509Y4774D03*
X4508Y3401D03*
G54D11*
X4571Y3401D03*
G54D12*
X4634Y3401D03*
X4634Y3594D03*
G54D11*
X4571Y3594D03*
G54D10*
X4508Y3594D03*
X4505Y2612D03*
G54D11*
X4568Y2612D03*
G54D12*
X4631Y2612D03*
X4631Y2805D03*
G54D11*
X4568Y2805D03*
G54D10*
X4505Y2805D03*
X4506Y4186D03*
G54D11*
X4569Y4186D03*
G54D12*
X4632Y4186D03*
X4632Y4379D03*
G54D11*
X4569Y4379D03*
G54D10*
X4506Y4379D03*
X4509Y4975D03*
G54D11*
X4572Y4975D03*
G54D12*
X4635Y4975D03*
X4635Y5168D03*
G54D11*
X4572Y5168D03*
G54D10*
X4509Y5168D03*
X1358Y3007D03*
G54D11*
X1421Y3007D03*
G54D12*
X1484Y3007D03*
X1484Y3200D03*
G54D11*
X1421Y3200D03*
G54D10*
X1358Y3200D03*
X1355Y2218D03*
G54D11*
X1418Y2218D03*
G54D12*
X1481Y2218D03*
X1481Y2411D03*
G54D11*
X1418Y2411D03*
G54D10*
X1355Y2411D03*
X1357Y3792D03*
G54D11*
X1420Y3792D03*
G54D12*
X1483Y3792D03*
X1483Y3985D03*
G54D11*
X1420Y3985D03*
G54D10*
X1357Y3985D03*
X1360Y4581D03*
G54D11*
X1423Y4581D03*
G54D12*
X1486Y4581D03*
X1486Y4774D03*
G54D11*
X1423Y4774D03*
G54D10*
X1360Y4774D03*
X1355Y2612D03*
G54D11*
X1418Y2612D03*
G54D12*
X1481Y2612D03*
X1481Y2805D03*
G54D11*
X1418Y2805D03*
G54D10*
X1355Y2805D03*
X1358Y3401D03*
G54D11*
X1421Y3401D03*
G54D12*
X1484Y3401D03*
X1484Y3594D03*
G54D11*
X1421Y3594D03*
G54D10*
X1358Y3594D03*
X1357Y4186D03*
G54D11*
X1420Y4186D03*
G54D12*
X1483Y4186D03*
X1483Y4379D03*
G54D11*
X1420Y4379D03*
G54D10*
X1357Y4379D03*
X1360Y4975D03*
G54D11*
X1423Y4975D03*
G54D12*
X1486Y4975D03*
X1486Y5168D03*
G54D11*
X1423Y5168D03*
G54D10*
X1360Y5168D03*
X1752Y3007D03*
G54D11*
X1815Y3007D03*
G54D12*
X1878Y3007D03*
X1878Y3200D03*
G54D11*
X1815Y3200D03*
G54D10*
X1752Y3200D03*
X1749Y2218D03*
G54D11*
X1812Y2218D03*
G54D12*
X1875Y2218D03*
X1875Y2411D03*
G54D11*
X1812Y2411D03*
G54D10*
X1749Y2411D03*
X1750Y3792D03*
G54D11*
X1813Y3792D03*
G54D12*
X1876Y3792D03*
X1876Y3985D03*
G54D11*
X1813Y3985D03*
G54D10*
X1750Y3985D03*
X1753Y4581D03*
G54D11*
X1816Y4581D03*
G54D12*
X1879Y4581D03*
X1879Y4774D03*
G54D11*
X1816Y4774D03*
G54D10*
X1753Y4774D03*
X4898Y2612D03*
G54D11*
X4961Y2612D03*
G54D12*
X5024Y2612D03*
X5024Y2805D03*
G54D11*
X4961Y2805D03*
G54D10*
X4898Y2805D03*
X4901Y3401D03*
G54D11*
X4964Y3401D03*
G54D12*
X5027Y3401D03*
X5027Y3594D03*
G54D11*
X4964Y3594D03*
G54D10*
X4901Y3594D03*
X4900Y4186D03*
G54D11*
X4963Y4186D03*
G54D12*
X5026Y4186D03*
X5026Y4379D03*
G54D11*
X4963Y4379D03*
G54D10*
X4900Y4379D03*
X4903Y4975D03*
G54D11*
X4966Y4975D03*
G54D12*
X5029Y4975D03*
X5029Y5168D03*
G54D11*
X4966Y5168D03*
G54D10*
X4903Y5168D03*
X4901Y3007D03*
G54D11*
X4964Y3007D03*
G54D12*
X5027Y3007D03*
X5027Y3200D03*
G54D11*
X4964Y3200D03*
G54D10*
X4901Y3200D03*
X4898Y2218D03*
G54D11*
X4961Y2218D03*
G54D12*
X5024Y2218D03*
X5024Y2411D03*
G54D11*
X4961Y2411D03*
G54D10*
X4898Y2411D03*
X4900Y3792D03*
G54D11*
X4963Y3792D03*
G54D12*
X5026Y3792D03*
X5026Y3985D03*
G54D11*
X4963Y3985D03*
G54D10*
X4900Y3985D03*
X4903Y4581D03*
G54D11*
X4966Y4581D03*
G54D12*
X5029Y4581D03*
X5029Y4774D03*
G54D11*
X4966Y4774D03*
G54D10*
X4903Y4774D03*
X1752Y3401D03*
G54D11*
X1815Y3401D03*
G54D12*
X1878Y3401D03*
X1878Y3594D03*
G54D11*
X1815Y3594D03*
G54D10*
X1752Y3594D03*
X1749Y2612D03*
G54D11*
X1812Y2612D03*
G54D12*
X1875Y2612D03*
X1875Y2805D03*
G54D11*
X1812Y2805D03*
G54D10*
X1749Y2805D03*
X1750Y4186D03*
G54D11*
X1813Y4186D03*
G54D12*
X1876Y4186D03*
X1876Y4379D03*
G54D11*
X1813Y4379D03*
G54D10*
X1750Y4379D03*
X1753Y4975D03*
G54D11*
X1816Y4975D03*
G54D12*
X1879Y4975D03*
X1879Y5168D03*
G54D11*
X1816Y5168D03*
G54D10*
X1753Y5168D03*
X5295Y3007D03*
G54D11*
X5358Y3007D03*
G54D12*
X5421Y3007D03*
X5421Y3200D03*
G54D11*
X5358Y3200D03*
G54D10*
X5295Y3200D03*
X5292Y2218D03*
G54D11*
X5355Y2218D03*
G54D12*
X5418Y2218D03*
X5418Y2411D03*
G54D11*
X5355Y2411D03*
G54D10*
X5292Y2411D03*
X5294Y3792D03*
G54D11*
X5357Y3792D03*
G54D12*
X5420Y3792D03*
X5420Y3985D03*
G54D11*
X5357Y3985D03*
G54D10*
X5294Y3985D03*
X5297Y4581D03*
G54D11*
X5360Y4581D03*
G54D12*
X5423Y4581D03*
X5423Y4774D03*
G54D11*
X5360Y4774D03*
G54D10*
X5297Y4774D03*
X5292Y2612D03*
G54D11*
X5355Y2612D03*
G54D12*
X5418Y2612D03*
X5418Y2805D03*
G54D11*
X5355Y2805D03*
G54D10*
X5292Y2805D03*
X5295Y3401D03*
G54D11*
X5358Y3401D03*
G54D12*
X5421Y3401D03*
X5421Y3594D03*
G54D11*
X5358Y3594D03*
G54D10*
X5295Y3594D03*
X5294Y4186D03*
G54D11*
X5357Y4186D03*
G54D12*
X5420Y4186D03*
X5420Y4379D03*
G54D11*
X5357Y4379D03*
G54D10*
X5294Y4379D03*
X5297Y4975D03*
G54D11*
X5360Y4975D03*
G54D12*
X5423Y4975D03*
X5423Y5168D03*
G54D11*
X5360Y5168D03*
G54D10*
X5297Y5168D03*
X2143Y2612D03*
G54D11*
X2206Y2612D03*
G54D12*
X2269Y2612D03*
X2269Y2805D03*
G54D11*
X2206Y2805D03*
G54D10*
X2143Y2805D03*
X2145Y3401D03*
G54D11*
X2208Y3401D03*
G54D12*
X2271Y3401D03*
X2271Y3594D03*
G54D11*
X2208Y3594D03*
G54D10*
X2145Y3594D03*
X2144Y4186D03*
G54D11*
X2207Y4186D03*
G54D12*
X2270Y4186D03*
X2270Y4379D03*
G54D11*
X2207Y4379D03*
G54D10*
X2144Y4379D03*
X2147Y4975D03*
G54D11*
X2210Y4975D03*
G54D12*
X2273Y4975D03*
X2273Y5168D03*
G54D11*
X2210Y5168D03*
G54D10*
X2147Y5168D03*
X2143Y2218D03*
G54D11*
X2206Y2218D03*
G54D12*
X2269Y2218D03*
X2269Y2411D03*
G54D11*
X2206Y2411D03*
G54D10*
X2143Y2411D03*
X2145Y3007D03*
G54D11*
X2208Y3007D03*
G54D12*
X2271Y3007D03*
X2271Y3200D03*
G54D11*
X2208Y3200D03*
G54D10*
X2145Y3200D03*
X2144Y3792D03*
G54D11*
X2207Y3792D03*
G54D12*
X2270Y3792D03*
X2270Y3985D03*
G54D11*
X2207Y3985D03*
G54D10*
X2144Y3985D03*
X2147Y4581D03*
G54D11*
X2210Y4581D03*
G54D12*
X2273Y4581D03*
X2273Y4774D03*
G54D11*
X2210Y4774D03*
G54D10*
X2147Y4774D03*
X2539Y3401D03*
G54D11*
X2602Y3401D03*
G54D12*
X2665Y3401D03*
X2665Y3594D03*
G54D11*
X2602Y3594D03*
G54D10*
X2539Y3594D03*
X2536Y2612D03*
G54D11*
X2599Y2612D03*
G54D12*
X2662Y2612D03*
X2662Y2805D03*
G54D11*
X2599Y2805D03*
G54D10*
X2536Y2805D03*
X2538Y4186D03*
G54D11*
X2601Y4186D03*
G54D12*
X2664Y4186D03*
X2664Y4379D03*
G54D11*
X2601Y4379D03*
G54D10*
X2538Y4379D03*
X2541Y4975D03*
G54D11*
X2604Y4975D03*
G54D12*
X2667Y4975D03*
X2667Y5168D03*
G54D11*
X2604Y5168D03*
G54D10*
X2541Y5168D03*
X2536Y2218D03*
G54D11*
X2599Y2218D03*
G54D12*
X2662Y2218D03*
X2662Y2411D03*
G54D11*
X2599Y2411D03*
G54D10*
X2536Y2411D03*
X2539Y3007D03*
G54D11*
X2602Y3007D03*
G54D12*
X2665Y3007D03*
X2665Y3200D03*
G54D11*
X2602Y3200D03*
G54D10*
X2539Y3200D03*
X2538Y3792D03*
G54D11*
X2601Y3792D03*
G54D12*
X2664Y3792D03*
X2664Y3985D03*
G54D11*
X2601Y3985D03*
G54D10*
X2538Y3985D03*
X2541Y4581D03*
G54D11*
X2604Y4581D03*
G54D12*
X2667Y4581D03*
X2667Y4774D03*
G54D11*
X2604Y4774D03*
G54D10*
X2541Y4774D03*
X5689Y3401D03*
G54D11*
X5752Y3401D03*
G54D12*
X5815Y3401D03*
X5815Y3594D03*
G54D11*
X5752Y3594D03*
G54D10*
X5689Y3594D03*
X5686Y2612D03*
G54D11*
X5749Y2612D03*
G54D12*
X5812Y2612D03*
X5812Y2805D03*
G54D11*
X5749Y2805D03*
G54D10*
X5686Y2805D03*
X5687Y4186D03*
G54D11*
X5750Y4186D03*
G54D12*
X5813Y4186D03*
X5813Y4379D03*
G54D11*
X5750Y4379D03*
G54D10*
X5687Y4379D03*
X5690Y4975D03*
G54D11*
X5753Y4975D03*
G54D12*
X5816Y4975D03*
X5816Y5168D03*
G54D11*
X5753Y5168D03*
G54D10*
X5690Y5168D03*
X5689Y3007D03*
G54D11*
X5752Y3007D03*
G54D12*
X5815Y3007D03*
X5815Y3200D03*
G54D11*
X5752Y3200D03*
G54D10*
X5689Y3200D03*
X5686Y2218D03*
G54D11*
X5749Y2218D03*
G54D12*
X5812Y2218D03*
X5812Y2411D03*
G54D11*
X5749Y2411D03*
G54D10*
X5686Y2411D03*
X5687Y3792D03*
G54D11*
X5750Y3792D03*
G54D12*
X5813Y3792D03*
X5813Y3985D03*
G54D11*
X5750Y3985D03*
G54D10*
X5687Y3985D03*
X5690Y4581D03*
G54D11*
X5753Y4581D03*
G54D12*
X5816Y4581D03*
X5816Y4774D03*
G54D11*
X5753Y4774D03*
G54D10*
X5690Y4774D03*
X6080Y2218D03*
G54D11*
X6143Y2218D03*
G54D12*
X6206Y2218D03*
X6206Y2411D03*
G54D11*
X6143Y2411D03*
G54D10*
X6080Y2411D03*
X6082Y3007D03*
G54D11*
X6145Y3007D03*
G54D12*
X6208Y3007D03*
X6208Y3200D03*
G54D11*
X6145Y3200D03*
G54D10*
X6082Y3200D03*
X6081Y3792D03*
G54D11*
X6144Y3792D03*
G54D12*
X6207Y3792D03*
X6207Y3985D03*
G54D11*
X6144Y3985D03*
G54D10*
X6081Y3985D03*
X6084Y4581D03*
G54D11*
X6147Y4581D03*
G54D12*
X6210Y4581D03*
X6210Y4774D03*
G54D11*
X6147Y4774D03*
G54D10*
X6084Y4774D03*
X6082Y3401D03*
G54D11*
X6145Y3401D03*
G54D12*
X6208Y3401D03*
X6208Y3594D03*
G54D11*
X6145Y3594D03*
G54D10*
X6082Y3594D03*
X6080Y2612D03*
G54D11*
X6143Y2612D03*
G54D12*
X6206Y2612D03*
X6206Y2805D03*
G54D11*
X6143Y2805D03*
G54D10*
X6080Y2805D03*
X6081Y4186D03*
G54D11*
X6144Y4186D03*
G54D12*
X6207Y4186D03*
X6207Y4379D03*
G54D11*
X6144Y4379D03*
G54D10*
X6081Y4379D03*
X6084Y4975D03*
G54D11*
X6147Y4975D03*
G54D12*
X6210Y4975D03*
X6210Y5168D03*
G54D11*
X6147Y5168D03*
G54D10*
X6084Y5168D03*
X2933Y3007D03*
G54D11*
X2996Y3007D03*
G54D12*
X3059Y3007D03*
X3059Y3200D03*
G54D11*
X2996Y3200D03*
G54D10*
X2933Y3200D03*
X2930Y2218D03*
G54D11*
X2993Y2218D03*
G54D12*
X3056Y2218D03*
X3056Y2411D03*
G54D11*
X2993Y2411D03*
G54D10*
X2930Y2411D03*
X2932Y3792D03*
G54D11*
X2995Y3792D03*
G54D12*
X3058Y3792D03*
X3058Y3985D03*
G54D11*
X2995Y3985D03*
G54D10*
X2932Y3985D03*
X2934Y4581D03*
G54D11*
X2997Y4581D03*
G54D12*
X3060Y4581D03*
X3060Y4774D03*
G54D11*
X2997Y4774D03*
G54D10*
X2934Y4774D03*
X2933Y3401D03*
G54D11*
X2996Y3401D03*
G54D12*
X3059Y3401D03*
X3059Y3594D03*
G54D11*
X2996Y3594D03*
G54D10*
X2933Y3594D03*
X2930Y2612D03*
G54D11*
X2993Y2612D03*
G54D12*
X3056Y2612D03*
X3056Y2805D03*
G54D11*
X2993Y2805D03*
G54D10*
X2930Y2805D03*
X2932Y4186D03*
G54D11*
X2995Y4186D03*
G54D12*
X3058Y4186D03*
X3058Y4379D03*
G54D11*
X2995Y4379D03*
G54D10*
X2932Y4379D03*
X2934Y4975D03*
G54D11*
X2997Y4975D03*
G54D12*
X3060Y4975D03*
X3060Y5168D03*
G54D11*
X2997Y5168D03*
G54D10*
X2934Y5168D03*
X3324Y2218D03*
G54D11*
X3387Y2218D03*
G54D12*
X3450Y2218D03*
X3450Y2411D03*
G54D11*
X3387Y2411D03*
G54D10*
X3324Y2411D03*
X3326Y3007D03*
G54D11*
X3389Y3007D03*
G54D12*
X3452Y3007D03*
X3452Y3200D03*
G54D11*
X3389Y3200D03*
G54D10*
X3326Y3200D03*
X3325Y3792D03*
G54D11*
X3388Y3792D03*
G54D12*
X3451Y3792D03*
X3451Y3985D03*
G54D11*
X3388Y3985D03*
G54D10*
X3325Y3985D03*
X3328Y4581D03*
G54D11*
X3391Y4581D03*
G54D12*
X3454Y4581D03*
X3454Y4774D03*
G54D11*
X3391Y4774D03*
G54D10*
X3328Y4774D03*
X6473Y2612D03*
G54D11*
X6536Y2612D03*
G54D12*
X6599Y2612D03*
X6599Y2805D03*
G54D11*
X6536Y2805D03*
G54D10*
X6473Y2805D03*
X6476Y3401D03*
G54D11*
X6539Y3401D03*
G54D12*
X6602Y3401D03*
X6602Y3594D03*
G54D11*
X6539Y3594D03*
G54D10*
X6476Y3594D03*
X6475Y4186D03*
G54D11*
X6538Y4186D03*
G54D12*
X6601Y4186D03*
X6601Y4379D03*
G54D11*
X6538Y4379D03*
G54D10*
X6475Y4379D03*
X6478Y4975D03*
G54D11*
X6541Y4975D03*
G54D12*
X6604Y4975D03*
X6604Y5168D03*
G54D11*
X6541Y5168D03*
G54D10*
X6478Y5168D03*
X3324Y2612D03*
G54D11*
X3387Y2612D03*
G54D12*
X3450Y2612D03*
X3450Y2805D03*
G54D11*
X3387Y2805D03*
G54D10*
X3324Y2805D03*
X3326Y3401D03*
G54D11*
X3389Y3401D03*
G54D12*
X3452Y3401D03*
X3452Y3594D03*
G54D11*
X3389Y3594D03*
G54D10*
X3326Y3594D03*
X3325Y4186D03*
G54D11*
X3388Y4186D03*
G54D12*
X3451Y4186D03*
X3451Y4379D03*
G54D11*
X3388Y4379D03*
G54D10*
X3325Y4379D03*
X3328Y4975D03*
G54D11*
X3391Y4975D03*
G54D12*
X3454Y4975D03*
X3454Y5168D03*
G54D11*
X3391Y5168D03*
G54D10*
X3328Y5168D03*
X6473Y2218D03*
G54D11*
X6536Y2218D03*
G54D12*
X6599Y2218D03*
X6599Y2411D03*
G54D11*
X6536Y2411D03*
G54D10*
X6473Y2411D03*
X6476Y3007D03*
G54D11*
X6539Y3007D03*
G54D12*
X6602Y3007D03*
X6602Y3200D03*
G54D11*
X6539Y3200D03*
G54D10*
X6476Y3200D03*
X6475Y3792D03*
G54D11*
X6538Y3792D03*
G54D12*
X6601Y3792D03*
X6601Y3985D03*
G54D11*
X6538Y3985D03*
G54D10*
X6475Y3985D03*
X6478Y4581D03*
G54D11*
X6541Y4581D03*
G54D12*
X6604Y4581D03*
X6604Y4774D03*
G54D11*
X6541Y4774D03*
G54D10*
X6478Y4774D03*
X3717Y2612D03*
G54D11*
X3780Y2612D03*
G54D12*
X3843Y2612D03*
X3843Y2805D03*
G54D11*
X3780Y2805D03*
G54D10*
X3717Y2805D03*
X3720Y3401D03*
G54D11*
X3783Y3401D03*
G54D12*
X3846Y3401D03*
X3846Y3594D03*
G54D11*
X3783Y3594D03*
G54D10*
X3720Y3594D03*
X3719Y4186D03*
G54D11*
X3782Y4186D03*
G54D12*
X3845Y4186D03*
X3845Y4379D03*
G54D11*
X3782Y4379D03*
G54D10*
X3719Y4379D03*
X3722Y4975D03*
G54D11*
X3785Y4975D03*
G54D12*
X3848Y4975D03*
X3848Y5168D03*
G54D11*
X3785Y5168D03*
G54D10*
X3722Y5168D03*
X6870Y3007D03*
G54D11*
X6933Y3007D03*
G54D12*
X6996Y3007D03*
X6996Y3200D03*
G54D11*
X6933Y3200D03*
G54D10*
X6870Y3200D03*
X6867Y2218D03*
G54D11*
X6930Y2218D03*
G54D12*
X6993Y2218D03*
X6993Y2411D03*
G54D11*
X6930Y2411D03*
G54D10*
X6867Y2411D03*
X6869Y3792D03*
G54D11*
X6932Y3792D03*
G54D12*
X6995Y3792D03*
X6995Y3985D03*
G54D11*
X6932Y3985D03*
G54D10*
X6869Y3985D03*
X6871Y4581D03*
G54D11*
X6934Y4581D03*
G54D12*
X6997Y4581D03*
X6997Y4774D03*
G54D11*
X6934Y4774D03*
G54D10*
X6871Y4774D03*
X6867Y2612D03*
G54D11*
X6930Y2612D03*
G54D12*
X6993Y2612D03*
X6993Y2805D03*
G54D11*
X6930Y2805D03*
G54D10*
X6867Y2805D03*
X6870Y3401D03*
G54D11*
X6933Y3401D03*
G54D12*
X6996Y3401D03*
X6996Y3594D03*
G54D11*
X6933Y3594D03*
G54D10*
X6870Y3594D03*
X6869Y4186D03*
G54D11*
X6932Y4186D03*
G54D12*
X6995Y4186D03*
X6995Y4379D03*
G54D11*
X6932Y4379D03*
G54D10*
X6869Y4379D03*
X6871Y4975D03*
G54D11*
X6934Y4975D03*
G54D12*
X6997Y4975D03*
X6997Y5168D03*
G54D11*
X6934Y5168D03*
G54D10*
X6871Y5168D03*
X3717Y2218D03*
G54D11*
X3780Y2218D03*
G54D12*
X3843Y2218D03*
X3843Y2411D03*
G54D11*
X3780Y2411D03*
G54D10*
X3717Y2411D03*
X3720Y3007D03*
G54D11*
X3783Y3007D03*
G54D12*
X3846Y3007D03*
X3846Y3200D03*
G54D11*
X3783Y3200D03*
G54D10*
X3720Y3200D03*
X3719Y3792D03*
G54D11*
X3782Y3792D03*
G54D12*
X3845Y3792D03*
X3845Y3985D03*
G54D11*
X3782Y3985D03*
G54D10*
X3719Y3985D03*
X3722Y4581D03*
G54D11*
X3785Y4581D03*
G54D12*
X3848Y4581D03*
X3848Y4774D03*
G54D11*
X3785Y4774D03*
G54D10*
X3722Y4774D03*
X962Y1864D03*
G54D11*
X1025Y1864D03*
G54D12*
X1088Y1864D03*
X1088Y2057D03*
G54D11*
X1025Y2057D03*
G54D10*
X962Y2057D03*
X4111Y1864D03*
G54D11*
X4174Y1864D03*
G54D12*
X4237Y1864D03*
X4237Y2057D03*
G54D11*
X4174Y2057D03*
G54D10*
X4111Y2057D03*
X4505Y1864D03*
G54D11*
X4568Y1864D03*
G54D12*
X4631Y1864D03*
X4631Y2057D03*
G54D11*
X4568Y2057D03*
G54D10*
X4505Y2057D03*
X1355Y1864D03*
G54D11*
X1418Y1864D03*
G54D12*
X1481Y1864D03*
X1481Y2057D03*
G54D11*
X1418Y2057D03*
G54D10*
X1355Y2057D03*
X1749Y1864D03*
G54D11*
X1812Y1864D03*
G54D12*
X1875Y1864D03*
X1875Y2057D03*
G54D11*
X1812Y2057D03*
G54D10*
X1749Y2057D03*
X4899Y1864D03*
G54D11*
X4962Y1864D03*
G54D12*
X5025Y1864D03*
X5025Y2057D03*
G54D11*
X4962Y2057D03*
G54D10*
X4899Y2057D03*
X5292Y1864D03*
G54D11*
X5355Y1864D03*
G54D12*
X5418Y1864D03*
X5418Y2057D03*
G54D11*
X5355Y2057D03*
G54D10*
X5292Y2057D03*
X2143Y1864D03*
G54D11*
X2206Y1864D03*
G54D12*
X2269Y1864D03*
X2269Y2057D03*
G54D11*
X2206Y2057D03*
G54D10*
X2143Y2057D03*
X2537Y1864D03*
G54D11*
X2600Y1864D03*
G54D12*
X2663Y1864D03*
X2663Y2057D03*
G54D11*
X2600Y2057D03*
G54D10*
X2537Y2057D03*
X5686Y1864D03*
G54D11*
X5749Y1864D03*
G54D12*
X5812Y1864D03*
X5812Y2057D03*
G54D11*
X5749Y2057D03*
G54D10*
X5686Y2057D03*
X6080Y1864D03*
G54D11*
X6143Y1864D03*
G54D12*
X6206Y1864D03*
X6206Y2057D03*
G54D11*
X6143Y2057D03*
G54D10*
X6080Y2057D03*
X2930Y1864D03*
G54D11*
X2993Y1864D03*
G54D12*
X3056Y1864D03*
X3056Y2057D03*
G54D11*
X2993Y2057D03*
G54D10*
X2930Y2057D03*
X3324Y1864D03*
G54D11*
X3387Y1864D03*
G54D12*
X3450Y1864D03*
X3450Y2057D03*
G54D11*
X3387Y2057D03*
G54D10*
X3324Y2057D03*
X6474Y1864D03*
G54D11*
X6537Y1864D03*
G54D12*
X6600Y1864D03*
X6600Y2057D03*
G54D11*
X6537Y2057D03*
G54D10*
X6474Y2057D03*
X6867Y1864D03*
G54D11*
X6930Y1864D03*
G54D12*
X6993Y1864D03*
X6993Y2057D03*
G54D11*
X6930Y2057D03*
G54D10*
X6867Y2057D03*
X3718Y1864D03*
G54D11*
X3781Y1864D03*
G54D12*
X3844Y1864D03*
X3844Y2057D03*
G54D11*
X3781Y2057D03*
G54D10*
X3718Y2057D03*
G54D13*
X348Y1591D03*
X348Y1666D03*
X265Y1629D03*
X368Y1985D03*
X368Y2060D03*
X285Y2022D03*
X387Y2339D03*
X387Y2414D03*
X305Y2377D03*
X427Y2733D03*
X427Y2808D03*
X344Y2770D03*
X466Y3127D03*
X466Y3201D03*
X383Y3164D03*
X505Y3520D03*
X505Y3595D03*
X423Y3558D03*
X545Y3914D03*
X545Y3989D03*
X462Y3951D03*
X584Y4308D03*
X584Y4382D03*
X502Y4345D03*
X624Y4701D03*
X624Y4776D03*
X541Y4739D03*
X663Y5095D03*
X663Y5170D03*
X580Y5132D03*
X702Y5489D03*
X702Y5564D03*
X620Y5526D03*
G54D14*
X1752Y782D03*
X1752Y660D03*
X1870Y782D03*
X1870Y660D03*
G04 End of PasteMask1*
M02*