G04 MADE WITH FRITZING*
G04 WWW.FRITZING.ORG*
G04 DOUBLE SIDED*
G04 HOLES PLATED*
G04 CONTOUR ON CENTER OF CONTOUR VECTOR*
%ASAXBY*%
%FSLAX23Y23*%
%MOIN*%
%OFA0B0*%
%SFA1.0B1.0*%
%ADD10C,0.049370*%
%ADD11C,0.085000*%
%ADD12C,0.089370*%
%ADD13C,0.075000*%
%ADD14C,0.102000*%
%ADD15C,0.084000*%
%ADD16C,0.067000*%
%ADD17C,0.096614*%
%ADD18R,0.049361X0.069056*%
%ADD19R,0.049389X0.069056*%
%ADD20R,0.049375X0.069056*%
%ADD21R,0.085000X0.085000*%
%ADD22R,0.089370X0.089370*%
%ADD23R,0.045433X0.041496*%
%ADD24R,0.084803X0.072992*%
%ADD25R,0.102000X0.102000*%
%LNMASK1*%
G90*
G70*
G54D10*
X966Y5470D03*
X961Y1589D03*
X1030Y5443D03*
X1092Y5464D03*
X1085Y1585D03*
X6998Y5482D03*
X6935Y5430D03*
X6872Y5484D03*
X6866Y1585D03*
X6929Y1536D03*
X6996Y1596D03*
X6605Y5488D03*
X6599Y1595D03*
X6542Y5433D03*
X6536Y1529D03*
X6477Y5493D03*
X6474Y1586D03*
X6209Y1590D03*
X6211Y5480D03*
X6145Y1548D03*
X6082Y1588D03*
X6086Y5497D03*
X6146Y5440D03*
X5819Y5483D03*
X5757Y5430D03*
X5687Y5493D03*
X5683Y1585D03*
X5749Y1534D03*
X5815Y1585D03*
X5424Y5486D03*
X5418Y1592D03*
X5352Y1544D03*
X5293Y1588D03*
X5295Y5489D03*
X5358Y5440D03*
X5030Y5484D03*
X4966Y5442D03*
X4905Y5496D03*
X4897Y1592D03*
X4961Y1550D03*
X5026Y1592D03*
X4636Y5488D03*
X4632Y1593D03*
X4571Y1551D03*
X4505Y1587D03*
X4509Y5486D03*
X4572Y5439D03*
X4240Y5493D03*
X4183Y5434D03*
X4119Y5491D03*
X4109Y1597D03*
X4172Y1550D03*
X4240Y1588D03*
X3850Y5486D03*
X3844Y1587D03*
X3781Y1542D03*
X3716Y1585D03*
X3721Y5486D03*
X3787Y5439D03*
X3455Y5473D03*
X3447Y1576D03*
X3387Y5439D03*
X3326Y5488D03*
X3325Y1587D03*
X3388Y1547D03*
X3064Y5492D03*
X3056Y1584D03*
X2997Y5431D03*
X2991Y1538D03*
X2933Y5488D03*
X2932Y1595D03*
X2669Y5484D03*
X2606Y5441D03*
X2539Y5492D03*
X2535Y1608D03*
X2600Y1545D03*
X2665Y1595D03*
X2270Y5484D03*
X2207Y5433D03*
X2148Y5490D03*
X2272Y1580D03*
X2207Y1545D03*
X2144Y1601D03*
X1879Y5475D03*
X1877Y1595D03*
X1818Y5433D03*
X1812Y1542D03*
X1751Y5486D03*
X1747Y1591D03*
X1482Y1591D03*
X1484Y5488D03*
X1421Y5435D03*
X1415Y1532D03*
X1358Y1591D03*
X1360Y5490D03*
X1026Y1549D03*
X960Y2719D03*
X963Y3515D03*
X961Y4299D03*
X964Y5065D03*
X963Y3125D03*
X960Y2336D03*
X962Y3910D03*
X965Y4699D03*
X1028Y3476D03*
X1025Y2680D03*
X1027Y4261D03*
X1029Y5066D03*
X1091Y3515D03*
X1088Y2718D03*
X1089Y4299D03*
X1092Y5065D03*
X1085Y2332D03*
X1088Y3121D03*
X1086Y3906D03*
X1089Y4695D03*
X6996Y3517D03*
X6993Y2721D03*
X6995Y4302D03*
X6996Y5084D03*
X6931Y2669D03*
X6933Y3465D03*
X6932Y4250D03*
X6933Y5032D03*
X6871Y3519D03*
X6868Y2723D03*
X6869Y4304D03*
X6870Y5086D03*
X6868Y3121D03*
X6865Y2332D03*
X6867Y3906D03*
X6870Y4695D03*
X6931Y3072D03*
X6928Y2283D03*
X6930Y3857D03*
X6933Y4646D03*
X6999Y3132D03*
X6996Y2343D03*
X6997Y3918D03*
X7000Y4707D03*
X6603Y3523D03*
X6600Y2727D03*
X6602Y4308D03*
X6603Y5090D03*
X6599Y2342D03*
X6602Y3131D03*
X6600Y3916D03*
X6603Y4705D03*
X6540Y3468D03*
X6538Y2671D03*
X6539Y4252D03*
X6540Y5034D03*
X6538Y3065D03*
X6535Y2276D03*
X6537Y3850D03*
X6540Y4639D03*
X6473Y2732D03*
X6475Y3528D03*
X6474Y4313D03*
X6475Y5095D03*
X6477Y3122D03*
X6474Y2333D03*
X6475Y3907D03*
X6478Y4696D03*
X6209Y2337D03*
X6212Y3126D03*
X6210Y3912D03*
X6213Y4701D03*
X6209Y3515D03*
X6206Y2719D03*
X6208Y4300D03*
X6209Y5082D03*
X6147Y3084D03*
X6144Y2295D03*
X6146Y3869D03*
X6149Y4658D03*
X6082Y2335D03*
X6084Y3124D03*
X6083Y3910D03*
X6086Y4699D03*
X6081Y2736D03*
X6084Y3533D03*
X6083Y4317D03*
X6084Y5099D03*
X6141Y2679D03*
X6144Y3475D03*
X6143Y4260D03*
X6144Y5042D03*
X5814Y2721D03*
X5817Y3518D03*
X5816Y4302D03*
X5817Y5084D03*
X5752Y2669D03*
X5755Y3465D03*
X5754Y4250D03*
X5754Y5032D03*
X5685Y3528D03*
X5683Y2732D03*
X5684Y4313D03*
X5685Y5095D03*
X5683Y2332D03*
X5685Y3121D03*
X5684Y3906D03*
X5687Y4695D03*
X5751Y3070D03*
X5749Y2281D03*
X5750Y3856D03*
X5753Y4645D03*
X5814Y2332D03*
X5817Y3121D03*
X5816Y3906D03*
X5819Y4695D03*
X5422Y3521D03*
X5419Y2725D03*
X5421Y4306D03*
X5421Y5088D03*
X5417Y2339D03*
X5420Y3128D03*
X5419Y3913D03*
X5422Y4702D03*
X5354Y3081D03*
X5351Y2291D03*
X5353Y3866D03*
X5356Y4655D03*
X5292Y2335D03*
X5295Y3124D03*
X5294Y3910D03*
X5297Y4699D03*
X5293Y3525D03*
X5290Y2728D03*
X5292Y4309D03*
X5293Y5091D03*
X5353Y2679D03*
X5356Y3476D03*
X5355Y4260D03*
X5355Y5042D03*
X5028Y3520D03*
X5025Y2723D03*
X5027Y4304D03*
X5027Y5086D03*
X4961Y2681D03*
X4964Y3477D03*
X4963Y4262D03*
X4963Y5044D03*
X4903Y3531D03*
X4900Y2735D03*
X4902Y4316D03*
X4902Y5098D03*
X4897Y2339D03*
X4899Y3128D03*
X4898Y3913D03*
X4901Y4702D03*
X4961Y2297D03*
X4964Y3086D03*
X4963Y3871D03*
X4965Y4660D03*
X5025Y2339D03*
X5028Y3128D03*
X5027Y3913D03*
X5030Y4702D03*
X4634Y3523D03*
X4631Y2727D03*
X4633Y4307D03*
X4634Y5089D03*
X4631Y2340D03*
X4634Y3130D03*
X4633Y3915D03*
X4636Y4704D03*
X4570Y2298D03*
X4573Y3087D03*
X4572Y3873D03*
X4575Y4662D03*
X4507Y3123D03*
X4504Y2334D03*
X4506Y3908D03*
X4509Y4697D03*
X4504Y2725D03*
X4507Y3521D03*
X4506Y4306D03*
X4507Y5088D03*
X4570Y3474D03*
X4567Y2678D03*
X4569Y4258D03*
X4569Y5040D03*
X4236Y2732D03*
X4238Y3528D03*
X4237Y4313D03*
X4238Y5095D03*
X4178Y2672D03*
X4181Y3469D03*
X4180Y4253D03*
X4180Y5035D03*
X4117Y3526D03*
X4114Y2730D03*
X4116Y4311D03*
X4116Y5093D03*
X4109Y2344D03*
X4112Y3133D03*
X4111Y3918D03*
X4113Y4707D03*
X4171Y2297D03*
X4174Y3086D03*
X4173Y3871D03*
X4176Y4660D03*
X4239Y2335D03*
X4242Y3124D03*
X4241Y3910D03*
X4244Y4699D03*
X3848Y3522D03*
X3846Y2725D03*
X3847Y4306D03*
X3848Y5088D03*
X3847Y3123D03*
X3844Y2334D03*
X3845Y3909D03*
X3848Y4698D03*
X3784Y3078D03*
X3781Y2289D03*
X3782Y3863D03*
X3785Y4652D03*
X3719Y3122D03*
X3716Y2332D03*
X3718Y3907D03*
X3720Y4696D03*
X3716Y2725D03*
X3719Y3522D03*
X3718Y4306D03*
X3718Y5088D03*
X3785Y3474D03*
X3783Y2677D03*
X3784Y4258D03*
X3785Y5040D03*
X3453Y3508D03*
X3451Y2712D03*
X3452Y4293D03*
X3453Y5075D03*
X3450Y3112D03*
X3447Y2323D03*
X3449Y3897D03*
X3451Y4686D03*
X3382Y2677D03*
X3385Y3474D03*
X3384Y4258D03*
X3384Y5040D03*
X3324Y3523D03*
X3321Y2727D03*
X3323Y4308D03*
X3323Y5090D03*
X3328Y3123D03*
X3325Y2334D03*
X3326Y3909D03*
X3329Y4698D03*
X3391Y3083D03*
X3388Y2294D03*
X3389Y3869D03*
X3392Y4658D03*
X3062Y3527D03*
X3060Y2731D03*
X3061Y4312D03*
X3062Y5094D03*
X3059Y3120D03*
X3056Y2331D03*
X3057Y3905D03*
X3060Y4694D03*
X2996Y3466D03*
X2993Y2670D03*
X2994Y4251D03*
X2995Y5033D03*
X2994Y3074D03*
X2991Y2285D03*
X2992Y3859D03*
X2995Y4648D03*
X2928Y2727D03*
X2931Y3523D03*
X2930Y4308D03*
X2930Y5090D03*
X2932Y2342D03*
X2934Y3131D03*
X2933Y3916D03*
X2936Y4705D03*
X2665Y2723D03*
X2667Y3520D03*
X2666Y4304D03*
X2667Y5086D03*
X2602Y2679D03*
X2604Y3476D03*
X2603Y4260D03*
X2604Y5042D03*
X2535Y2731D03*
X2538Y3527D03*
X2536Y4312D03*
X2537Y5094D03*
X2538Y3144D03*
X2535Y2355D03*
X2536Y3930D03*
X2539Y4719D03*
X2602Y3081D03*
X2600Y2292D03*
X2601Y3867D03*
X2604Y4656D03*
X2667Y3131D03*
X2665Y2342D03*
X2666Y3916D03*
X2669Y4705D03*
X2266Y2723D03*
X2269Y3520D03*
X2267Y4304D03*
X2268Y5086D03*
X2206Y3468D03*
X2203Y2672D03*
X2204Y4253D03*
X2205Y5035D03*
X2146Y3525D03*
X2144Y2729D03*
X2145Y4310D03*
X2146Y5092D03*
X2274Y3116D03*
X2271Y2327D03*
X2273Y3901D03*
X2276Y4690D03*
X2209Y3081D03*
X2207Y2292D03*
X2208Y3867D03*
X2211Y4656D03*
X2146Y3137D03*
X2144Y2348D03*
X2145Y3922D03*
X2148Y4711D03*
X1877Y3510D03*
X1875Y2714D03*
X1876Y4295D03*
X1877Y5077D03*
X1879Y3131D03*
X1876Y2342D03*
X1878Y3916D03*
X1881Y4705D03*
X1814Y2672D03*
X1816Y3468D03*
X1815Y4253D03*
X1816Y5035D03*
X1814Y3078D03*
X1812Y2289D03*
X1813Y3863D03*
X1816Y4652D03*
X1747Y2725D03*
X1750Y3522D03*
X1748Y4306D03*
X1749Y5088D03*
X1747Y2338D03*
X1750Y3127D03*
X1748Y3912D03*
X1751Y4702D03*
X1482Y2338D03*
X1484Y3127D03*
X1483Y3912D03*
X1486Y4702D03*
X1480Y2727D03*
X1482Y3523D03*
X1481Y4308D03*
X1482Y5090D03*
X1419Y3470D03*
X1417Y2674D03*
X1418Y4255D03*
X1419Y5037D03*
X1418Y3068D03*
X1415Y2279D03*
X1416Y3853D03*
X1419Y4642D03*
X1360Y3127D03*
X1357Y2338D03*
X1359Y3912D03*
X1362Y4702D03*
X1358Y3525D03*
X1356Y2729D03*
X1357Y4310D03*
X1358Y5092D03*
X1025Y2296D03*
X1028Y3085D03*
X1027Y3870D03*
X1030Y4659D03*
X961Y1982D03*
X1085Y1978D03*
X6866Y1978D03*
X6929Y1929D03*
X6996Y1989D03*
X6599Y1988D03*
X6536Y1922D03*
X6474Y1979D03*
X6209Y1984D03*
X6144Y1941D03*
X6082Y1982D03*
X5683Y1978D03*
X5749Y1928D03*
X5815Y1978D03*
X5418Y1985D03*
X5352Y1938D03*
X5292Y1982D03*
X4897Y1985D03*
X4961Y1943D03*
X5025Y1985D03*
X4632Y1987D03*
X4571Y1944D03*
X4505Y1980D03*
X4109Y1990D03*
X4172Y1943D03*
X4239Y1982D03*
X3844Y1981D03*
X3781Y1935D03*
X3716Y1979D03*
X3447Y1969D03*
X3325Y1981D03*
X3388Y1940D03*
X3056Y1977D03*
X2991Y1931D03*
X2932Y1988D03*
X2535Y2002D03*
X2600Y1939D03*
X2665Y1988D03*
X2272Y1973D03*
X2207Y1939D03*
X2144Y1994D03*
X1877Y1988D03*
X1812Y1935D03*
X1747Y1984D03*
X1482Y1984D03*
X1415Y1925D03*
X1358Y1984D03*
X1025Y1942D03*
G54D11*
X3291Y699D03*
X3291Y399D03*
X3391Y699D03*
X3391Y399D03*
X3491Y699D03*
X3491Y399D03*
X3591Y699D03*
X3591Y399D03*
X3691Y699D03*
X3691Y399D03*
X3791Y699D03*
X3791Y399D03*
X3891Y699D03*
X3891Y399D03*
X3991Y699D03*
X3991Y399D03*
X4091Y699D03*
X4091Y399D03*
X4191Y699D03*
X4191Y399D03*
X4291Y699D03*
X4291Y399D03*
X4391Y699D03*
X4391Y399D03*
X4491Y699D03*
X4491Y399D03*
X4591Y699D03*
X4591Y399D03*
X3291Y699D03*
X3291Y399D03*
X3391Y699D03*
X3391Y399D03*
X3491Y699D03*
X3491Y399D03*
X3591Y699D03*
X3591Y399D03*
X3691Y699D03*
X3691Y399D03*
X3791Y699D03*
X3791Y399D03*
X3891Y699D03*
X3891Y399D03*
X3991Y699D03*
X3991Y399D03*
X4091Y699D03*
X4091Y399D03*
X4191Y699D03*
X4191Y399D03*
X4291Y699D03*
X4291Y399D03*
X4391Y699D03*
X4391Y399D03*
X4491Y699D03*
X4491Y399D03*
X4591Y699D03*
X4591Y399D03*
G54D12*
X1053Y444D03*
X1353Y444D03*
X1053Y544D03*
X1353Y544D03*
X1053Y644D03*
X1353Y644D03*
X1053Y744D03*
X1353Y744D03*
X1053Y444D03*
X1353Y444D03*
X1053Y544D03*
X1353Y544D03*
X1053Y644D03*
X1353Y644D03*
X1053Y744D03*
X1353Y744D03*
G54D10*
X3887Y841D03*
X2430Y842D03*
X2490Y782D03*
X3031Y910D03*
X2598Y910D03*
X2933Y959D03*
X2618Y959D03*
X3021Y497D03*
X5510Y851D03*
X5649Y802D03*
X4045Y851D03*
X3061Y565D03*
X1525Y497D03*
X5698Y762D03*
X5748Y723D03*
X777Y1392D03*
X738Y1353D03*
X659Y1274D03*
X698Y1314D03*
X620Y1235D03*
X580Y1195D03*
X541Y1156D03*
X502Y1117D03*
X462Y1077D03*
X423Y1038D03*
X383Y999D03*
X345Y1555D03*
X383Y1945D03*
X424Y2297D03*
X461Y2693D03*
X502Y3086D03*
X543Y3478D03*
X581Y3875D03*
X617Y4267D03*
X659Y4659D03*
X698Y5055D03*
X738Y5449D03*
X3415Y920D03*
X3494Y920D03*
X3572Y920D03*
X3691Y920D03*
X3769Y920D03*
X4124Y920D03*
X4202Y920D03*
X4281Y920D03*
X4399Y920D03*
X4478Y920D03*
X4596Y920D03*
X305Y880D03*
G54D13*
X3987Y949D03*
X3887Y949D03*
X3987Y949D03*
X3887Y949D03*
X3987Y949D03*
X3887Y949D03*
G54D10*
X1870Y556D03*
X2342Y782D03*
X2450Y949D03*
X1958Y753D03*
X5037Y799D03*
X4986Y852D03*
X1880Y882D03*
G54D14*
X6929Y900D03*
X6629Y900D03*
X6929Y900D03*
X6629Y900D03*
X6929Y487D03*
X6629Y487D03*
X6929Y487D03*
X6629Y487D03*
G54D11*
X6939Y792D03*
X6539Y792D03*
X6939Y792D03*
X6539Y792D03*
X6939Y369D03*
X6539Y369D03*
X6939Y369D03*
X6539Y369D03*
G54D10*
X6427Y487D03*
G54D11*
X6702Y605D03*
X7072Y605D03*
X6702Y605D03*
X7072Y605D03*
X6702Y605D03*
X7072Y605D03*
X6633Y693D03*
X7003Y693D03*
X6633Y693D03*
X7003Y693D03*
X6633Y693D03*
X7003Y693D03*
G54D14*
X7322Y1048D03*
X7322Y748D03*
X7322Y1048D03*
X7322Y748D03*
G54D15*
X1643Y625D03*
X1643Y925D03*
X1643Y625D03*
X1643Y925D03*
X1643Y625D03*
X1643Y925D03*
G54D16*
X1722Y329D03*
X1643Y329D03*
X1722Y329D03*
X1643Y329D03*
X1722Y329D03*
X1643Y329D03*
G54D17*
X7628Y251D03*
X226Y251D03*
X7628Y5684D03*
X226Y5684D03*
G54D18*
X962Y1471D03*
G54D19*
X1025Y1471D03*
G54D20*
X1088Y1471D03*
X1088Y1664D03*
G54D19*
X1025Y1664D03*
G54D18*
X962Y1664D03*
X4112Y1471D03*
G54D19*
X4175Y1471D03*
G54D20*
X4238Y1471D03*
X4238Y1664D03*
G54D19*
X4175Y1664D03*
G54D18*
X4112Y1664D03*
X4116Y5369D03*
G54D19*
X4179Y5369D03*
G54D20*
X4242Y5369D03*
X4242Y5562D03*
G54D19*
X4179Y5562D03*
G54D18*
X4116Y5562D03*
X966Y5369D03*
G54D19*
X1029Y5369D03*
G54D20*
X1092Y5369D03*
X1092Y5562D03*
G54D19*
X1029Y5562D03*
G54D18*
X966Y5562D03*
X4505Y1471D03*
G54D19*
X4568Y1471D03*
G54D20*
X4631Y1471D03*
X4631Y1664D03*
G54D19*
X4568Y1664D03*
G54D18*
X4505Y1664D03*
X4509Y5369D03*
G54D19*
X4572Y5369D03*
G54D20*
X4635Y5369D03*
X4635Y5562D03*
G54D19*
X4572Y5562D03*
G54D18*
X4509Y5562D03*
X1356Y1471D03*
G54D19*
X1419Y1471D03*
G54D20*
X1482Y1471D03*
X1482Y1664D03*
G54D19*
X1419Y1664D03*
G54D18*
X1356Y1664D03*
X1360Y5369D03*
G54D19*
X1423Y5369D03*
G54D20*
X1486Y5369D03*
X1486Y5562D03*
G54D19*
X1423Y5562D03*
G54D18*
X1360Y5562D03*
X1749Y1471D03*
G54D19*
X1812Y1471D03*
G54D20*
X1875Y1471D03*
X1875Y1664D03*
G54D19*
X1812Y1664D03*
G54D18*
X1749Y1664D03*
X4903Y5369D03*
G54D19*
X4966Y5369D03*
G54D20*
X5029Y5369D03*
X5029Y5562D03*
G54D19*
X4966Y5562D03*
G54D18*
X4903Y5562D03*
X4899Y1471D03*
G54D19*
X4962Y1471D03*
G54D20*
X5025Y1471D03*
X5025Y1664D03*
G54D19*
X4962Y1664D03*
G54D18*
X4899Y1664D03*
X1753Y5369D03*
G54D19*
X1816Y5369D03*
G54D20*
X1879Y5369D03*
X1879Y5562D03*
G54D19*
X1816Y5562D03*
G54D18*
X1753Y5562D03*
X5293Y1471D03*
G54D19*
X5356Y1471D03*
G54D20*
X5419Y1471D03*
X5419Y1664D03*
G54D19*
X5356Y1664D03*
G54D18*
X5293Y1664D03*
X5297Y5369D03*
G54D19*
X5360Y5369D03*
G54D20*
X5423Y5369D03*
X5423Y5562D03*
G54D19*
X5360Y5562D03*
G54D18*
X5297Y5562D03*
X2147Y5369D03*
G54D19*
X2210Y5369D03*
G54D20*
X2273Y5369D03*
X2273Y5562D03*
G54D19*
X2210Y5562D03*
G54D18*
X2147Y5562D03*
X2143Y1471D03*
G54D19*
X2206Y1471D03*
G54D20*
X2269Y1471D03*
X2269Y1664D03*
G54D19*
X2206Y1664D03*
G54D18*
X2143Y1664D03*
X2541Y5369D03*
G54D19*
X2604Y5369D03*
G54D20*
X2667Y5369D03*
X2667Y5562D03*
G54D19*
X2604Y5562D03*
G54D18*
X2541Y5562D03*
X2537Y1471D03*
G54D19*
X2600Y1471D03*
G54D20*
X2663Y1471D03*
X2663Y1664D03*
G54D19*
X2600Y1664D03*
G54D18*
X2537Y1664D03*
X5690Y5369D03*
G54D19*
X5753Y5369D03*
G54D20*
X5816Y5369D03*
X5816Y5562D03*
G54D19*
X5753Y5562D03*
G54D18*
X5690Y5562D03*
X5686Y1471D03*
G54D19*
X5749Y1471D03*
G54D20*
X5812Y1471D03*
X5812Y1664D03*
G54D19*
X5749Y1664D03*
G54D18*
X5686Y1664D03*
X6080Y1471D03*
G54D19*
X6143Y1471D03*
G54D20*
X6206Y1471D03*
X6206Y1664D03*
G54D19*
X6143Y1664D03*
G54D18*
X6080Y1664D03*
X6084Y5369D03*
G54D19*
X6147Y5369D03*
G54D20*
X6210Y5369D03*
X6210Y5562D03*
G54D19*
X6147Y5562D03*
G54D18*
X6084Y5562D03*
X2930Y1471D03*
G54D19*
X2993Y1471D03*
G54D20*
X3056Y1471D03*
X3056Y1664D03*
G54D19*
X2993Y1664D03*
G54D18*
X2930Y1664D03*
X2935Y5369D03*
G54D19*
X2998Y5369D03*
G54D20*
X3061Y5369D03*
X3061Y5562D03*
G54D19*
X2998Y5562D03*
G54D18*
X2935Y5562D03*
X3324Y1471D03*
G54D19*
X3387Y1471D03*
G54D20*
X3450Y1471D03*
X3450Y1664D03*
G54D19*
X3387Y1664D03*
G54D18*
X3324Y1664D03*
X6478Y5369D03*
G54D19*
X6541Y5369D03*
G54D20*
X6604Y5369D03*
X6604Y5562D03*
G54D19*
X6541Y5562D03*
G54D18*
X6478Y5562D03*
X3328Y5369D03*
G54D19*
X3391Y5369D03*
G54D20*
X3454Y5369D03*
X3454Y5562D03*
G54D19*
X3391Y5562D03*
G54D18*
X3328Y5562D03*
X6474Y1471D03*
G54D19*
X6537Y1471D03*
G54D20*
X6600Y1471D03*
X6600Y1664D03*
G54D19*
X6537Y1664D03*
G54D18*
X6474Y1664D03*
X3722Y5369D03*
G54D19*
X3785Y5369D03*
G54D20*
X3848Y5369D03*
X3848Y5562D03*
G54D19*
X3785Y5562D03*
G54D18*
X3722Y5562D03*
X6867Y1471D03*
G54D19*
X6930Y1471D03*
G54D20*
X6993Y1471D03*
X6993Y1664D03*
G54D19*
X6930Y1664D03*
G54D18*
X6867Y1664D03*
X6872Y5369D03*
G54D19*
X6935Y5369D03*
G54D20*
X6998Y5369D03*
X6998Y5562D03*
G54D19*
X6935Y5562D03*
G54D18*
X6872Y5562D03*
X3718Y1471D03*
G54D19*
X3781Y1471D03*
G54D20*
X3844Y1471D03*
X3844Y1664D03*
G54D19*
X3781Y1664D03*
G54D18*
X3718Y1664D03*
X964Y3007D03*
G54D19*
X1027Y3007D03*
G54D20*
X1090Y3007D03*
X1090Y3200D03*
G54D19*
X1027Y3200D03*
G54D18*
X964Y3200D03*
X961Y2218D03*
G54D19*
X1024Y2218D03*
G54D20*
X1087Y2218D03*
X1087Y2411D03*
G54D19*
X1024Y2411D03*
G54D18*
X961Y2411D03*
X963Y3792D03*
G54D19*
X1026Y3792D03*
G54D20*
X1089Y3792D03*
X1089Y3985D03*
G54D19*
X1026Y3985D03*
G54D18*
X963Y3985D03*
X966Y4581D03*
G54D19*
X1029Y4581D03*
G54D20*
X1092Y4581D03*
X1092Y4774D03*
G54D19*
X1029Y4774D03*
G54D18*
X966Y4774D03*
X4111Y2218D03*
G54D19*
X4174Y2218D03*
G54D20*
X4237Y2218D03*
X4237Y2411D03*
G54D19*
X4174Y2411D03*
G54D18*
X4111Y2411D03*
X4114Y3007D03*
G54D19*
X4177Y3007D03*
G54D20*
X4240Y3007D03*
X4240Y3200D03*
G54D19*
X4177Y3200D03*
G54D18*
X4114Y3200D03*
X4113Y3792D03*
G54D19*
X4176Y3792D03*
G54D20*
X4239Y3792D03*
X4239Y3985D03*
G54D19*
X4176Y3985D03*
G54D18*
X4113Y3985D03*
X4115Y4581D03*
G54D19*
X4178Y4581D03*
G54D20*
X4241Y4581D03*
X4241Y4774D03*
G54D19*
X4178Y4774D03*
G54D18*
X4115Y4774D03*
X4114Y3401D03*
G54D19*
X4177Y3401D03*
G54D20*
X4240Y3401D03*
X4240Y3594D03*
G54D19*
X4177Y3594D03*
G54D18*
X4114Y3594D03*
X4111Y2612D03*
G54D19*
X4174Y2612D03*
G54D20*
X4237Y2612D03*
X4237Y2805D03*
G54D19*
X4174Y2805D03*
G54D18*
X4111Y2805D03*
X4113Y4186D03*
G54D19*
X4176Y4186D03*
G54D20*
X4239Y4186D03*
X4239Y4379D03*
G54D19*
X4176Y4379D03*
G54D18*
X4113Y4379D03*
X4115Y4975D03*
G54D19*
X4178Y4975D03*
G54D20*
X4241Y4975D03*
X4241Y5168D03*
G54D19*
X4178Y5168D03*
G54D18*
X4115Y5168D03*
X964Y3401D03*
G54D19*
X1027Y3401D03*
G54D20*
X1090Y3401D03*
X1090Y3594D03*
G54D19*
X1027Y3594D03*
G54D18*
X964Y3594D03*
X961Y2612D03*
G54D19*
X1024Y2612D03*
G54D20*
X1087Y2612D03*
X1087Y2805D03*
G54D19*
X1024Y2805D03*
G54D18*
X961Y2805D03*
X963Y4186D03*
G54D19*
X1026Y4186D03*
G54D20*
X1089Y4186D03*
X1089Y4379D03*
G54D19*
X1026Y4379D03*
G54D18*
X963Y4379D03*
X966Y4975D03*
G54D19*
X1029Y4975D03*
G54D20*
X1092Y4975D03*
X1092Y5168D03*
G54D19*
X1029Y5168D03*
G54D18*
X966Y5168D03*
X4508Y3007D03*
G54D19*
X4571Y3007D03*
G54D20*
X4634Y3007D03*
X4634Y3200D03*
G54D19*
X4571Y3200D03*
G54D18*
X4508Y3200D03*
X4505Y2218D03*
G54D19*
X4568Y2218D03*
G54D20*
X4631Y2218D03*
X4631Y2411D03*
G54D19*
X4568Y2411D03*
G54D18*
X4505Y2411D03*
X4506Y3792D03*
G54D19*
X4569Y3792D03*
G54D20*
X4632Y3792D03*
X4632Y3985D03*
G54D19*
X4569Y3985D03*
G54D18*
X4506Y3985D03*
X4509Y4581D03*
G54D19*
X4572Y4581D03*
G54D20*
X4635Y4581D03*
X4635Y4774D03*
G54D19*
X4572Y4774D03*
G54D18*
X4509Y4774D03*
X4508Y3401D03*
G54D19*
X4571Y3401D03*
G54D20*
X4634Y3401D03*
X4634Y3594D03*
G54D19*
X4571Y3594D03*
G54D18*
X4508Y3594D03*
X4505Y2612D03*
G54D19*
X4568Y2612D03*
G54D20*
X4631Y2612D03*
X4631Y2805D03*
G54D19*
X4568Y2805D03*
G54D18*
X4505Y2805D03*
X4506Y4186D03*
G54D19*
X4569Y4186D03*
G54D20*
X4632Y4186D03*
X4632Y4379D03*
G54D19*
X4569Y4379D03*
G54D18*
X4506Y4379D03*
X4509Y4975D03*
G54D19*
X4572Y4975D03*
G54D20*
X4635Y4975D03*
X4635Y5168D03*
G54D19*
X4572Y5168D03*
G54D18*
X4509Y5168D03*
X1358Y3007D03*
G54D19*
X1421Y3007D03*
G54D20*
X1484Y3007D03*
X1484Y3200D03*
G54D19*
X1421Y3200D03*
G54D18*
X1358Y3200D03*
X1355Y2218D03*
G54D19*
X1418Y2218D03*
G54D20*
X1481Y2218D03*
X1481Y2411D03*
G54D19*
X1418Y2411D03*
G54D18*
X1355Y2411D03*
X1357Y3792D03*
G54D19*
X1420Y3792D03*
G54D20*
X1483Y3792D03*
X1483Y3985D03*
G54D19*
X1420Y3985D03*
G54D18*
X1357Y3985D03*
X1360Y4581D03*
G54D19*
X1423Y4581D03*
G54D20*
X1486Y4581D03*
X1486Y4774D03*
G54D19*
X1423Y4774D03*
G54D18*
X1360Y4774D03*
X1355Y2612D03*
G54D19*
X1418Y2612D03*
G54D20*
X1481Y2612D03*
X1481Y2805D03*
G54D19*
X1418Y2805D03*
G54D18*
X1355Y2805D03*
X1358Y3401D03*
G54D19*
X1421Y3401D03*
G54D20*
X1484Y3401D03*
X1484Y3594D03*
G54D19*
X1421Y3594D03*
G54D18*
X1358Y3594D03*
X1357Y4186D03*
G54D19*
X1420Y4186D03*
G54D20*
X1483Y4186D03*
X1483Y4379D03*
G54D19*
X1420Y4379D03*
G54D18*
X1357Y4379D03*
X1360Y4975D03*
G54D19*
X1423Y4975D03*
G54D20*
X1486Y4975D03*
X1486Y5168D03*
G54D19*
X1423Y5168D03*
G54D18*
X1360Y5168D03*
X1752Y3007D03*
G54D19*
X1815Y3007D03*
G54D20*
X1878Y3007D03*
X1878Y3200D03*
G54D19*
X1815Y3200D03*
G54D18*
X1752Y3200D03*
X1749Y2218D03*
G54D19*
X1812Y2218D03*
G54D20*
X1875Y2218D03*
X1875Y2411D03*
G54D19*
X1812Y2411D03*
G54D18*
X1749Y2411D03*
X1750Y3792D03*
G54D19*
X1813Y3792D03*
G54D20*
X1876Y3792D03*
X1876Y3985D03*
G54D19*
X1813Y3985D03*
G54D18*
X1750Y3985D03*
X1753Y4581D03*
G54D19*
X1816Y4581D03*
G54D20*
X1879Y4581D03*
X1879Y4774D03*
G54D19*
X1816Y4774D03*
G54D18*
X1753Y4774D03*
X4898Y2612D03*
G54D19*
X4961Y2612D03*
G54D20*
X5024Y2612D03*
X5024Y2805D03*
G54D19*
X4961Y2805D03*
G54D18*
X4898Y2805D03*
X4901Y3401D03*
G54D19*
X4964Y3401D03*
G54D20*
X5027Y3401D03*
X5027Y3594D03*
G54D19*
X4964Y3594D03*
G54D18*
X4901Y3594D03*
X4900Y4186D03*
G54D19*
X4963Y4186D03*
G54D20*
X5026Y4186D03*
X5026Y4379D03*
G54D19*
X4963Y4379D03*
G54D18*
X4900Y4379D03*
X4903Y4975D03*
G54D19*
X4966Y4975D03*
G54D20*
X5029Y4975D03*
X5029Y5168D03*
G54D19*
X4966Y5168D03*
G54D18*
X4903Y5168D03*
X4901Y3007D03*
G54D19*
X4964Y3007D03*
G54D20*
X5027Y3007D03*
X5027Y3200D03*
G54D19*
X4964Y3200D03*
G54D18*
X4901Y3200D03*
X4898Y2218D03*
G54D19*
X4961Y2218D03*
G54D20*
X5024Y2218D03*
X5024Y2411D03*
G54D19*
X4961Y2411D03*
G54D18*
X4898Y2411D03*
X4900Y3792D03*
G54D19*
X4963Y3792D03*
G54D20*
X5026Y3792D03*
X5026Y3985D03*
G54D19*
X4963Y3985D03*
G54D18*
X4900Y3985D03*
X4903Y4581D03*
G54D19*
X4966Y4581D03*
G54D20*
X5029Y4581D03*
X5029Y4774D03*
G54D19*
X4966Y4774D03*
G54D18*
X4903Y4774D03*
X1752Y3401D03*
G54D19*
X1815Y3401D03*
G54D20*
X1878Y3401D03*
X1878Y3594D03*
G54D19*
X1815Y3594D03*
G54D18*
X1752Y3594D03*
X1749Y2612D03*
G54D19*
X1812Y2612D03*
G54D20*
X1875Y2612D03*
X1875Y2805D03*
G54D19*
X1812Y2805D03*
G54D18*
X1749Y2805D03*
X1750Y4186D03*
G54D19*
X1813Y4186D03*
G54D20*
X1876Y4186D03*
X1876Y4379D03*
G54D19*
X1813Y4379D03*
G54D18*
X1750Y4379D03*
X1753Y4975D03*
G54D19*
X1816Y4975D03*
G54D20*
X1879Y4975D03*
X1879Y5168D03*
G54D19*
X1816Y5168D03*
G54D18*
X1753Y5168D03*
X5295Y3007D03*
G54D19*
X5358Y3007D03*
G54D20*
X5421Y3007D03*
X5421Y3200D03*
G54D19*
X5358Y3200D03*
G54D18*
X5295Y3200D03*
X5292Y2218D03*
G54D19*
X5355Y2218D03*
G54D20*
X5418Y2218D03*
X5418Y2411D03*
G54D19*
X5355Y2411D03*
G54D18*
X5292Y2411D03*
X5294Y3792D03*
G54D19*
X5357Y3792D03*
G54D20*
X5420Y3792D03*
X5420Y3985D03*
G54D19*
X5357Y3985D03*
G54D18*
X5294Y3985D03*
X5297Y4581D03*
G54D19*
X5360Y4581D03*
G54D20*
X5423Y4581D03*
X5423Y4774D03*
G54D19*
X5360Y4774D03*
G54D18*
X5297Y4774D03*
X5292Y2612D03*
G54D19*
X5355Y2612D03*
G54D20*
X5418Y2612D03*
X5418Y2805D03*
G54D19*
X5355Y2805D03*
G54D18*
X5292Y2805D03*
X5295Y3401D03*
G54D19*
X5358Y3401D03*
G54D20*
X5421Y3401D03*
X5421Y3594D03*
G54D19*
X5358Y3594D03*
G54D18*
X5295Y3594D03*
X5294Y4186D03*
G54D19*
X5357Y4186D03*
G54D20*
X5420Y4186D03*
X5420Y4379D03*
G54D19*
X5357Y4379D03*
G54D18*
X5294Y4379D03*
X5297Y4975D03*
G54D19*
X5360Y4975D03*
G54D20*
X5423Y4975D03*
X5423Y5168D03*
G54D19*
X5360Y5168D03*
G54D18*
X5297Y5168D03*
X2143Y2612D03*
G54D19*
X2206Y2612D03*
G54D20*
X2269Y2612D03*
X2269Y2805D03*
G54D19*
X2206Y2805D03*
G54D18*
X2143Y2805D03*
X2145Y3401D03*
G54D19*
X2208Y3401D03*
G54D20*
X2271Y3401D03*
X2271Y3594D03*
G54D19*
X2208Y3594D03*
G54D18*
X2145Y3594D03*
X2144Y4186D03*
G54D19*
X2207Y4186D03*
G54D20*
X2270Y4186D03*
X2270Y4379D03*
G54D19*
X2207Y4379D03*
G54D18*
X2144Y4379D03*
X2147Y4975D03*
G54D19*
X2210Y4975D03*
G54D20*
X2273Y4975D03*
X2273Y5168D03*
G54D19*
X2210Y5168D03*
G54D18*
X2147Y5168D03*
X2143Y2218D03*
G54D19*
X2206Y2218D03*
G54D20*
X2269Y2218D03*
X2269Y2411D03*
G54D19*
X2206Y2411D03*
G54D18*
X2143Y2411D03*
X2145Y3007D03*
G54D19*
X2208Y3007D03*
G54D20*
X2271Y3007D03*
X2271Y3200D03*
G54D19*
X2208Y3200D03*
G54D18*
X2145Y3200D03*
X2144Y3792D03*
G54D19*
X2207Y3792D03*
G54D20*
X2270Y3792D03*
X2270Y3985D03*
G54D19*
X2207Y3985D03*
G54D18*
X2144Y3985D03*
X2147Y4581D03*
G54D19*
X2210Y4581D03*
G54D20*
X2273Y4581D03*
X2273Y4774D03*
G54D19*
X2210Y4774D03*
G54D18*
X2147Y4774D03*
X2539Y3401D03*
G54D19*
X2602Y3401D03*
G54D20*
X2665Y3401D03*
X2665Y3594D03*
G54D19*
X2602Y3594D03*
G54D18*
X2539Y3594D03*
X2536Y2612D03*
G54D19*
X2599Y2612D03*
G54D20*
X2662Y2612D03*
X2662Y2805D03*
G54D19*
X2599Y2805D03*
G54D18*
X2536Y2805D03*
X2538Y4186D03*
G54D19*
X2601Y4186D03*
G54D20*
X2664Y4186D03*
X2664Y4379D03*
G54D19*
X2601Y4379D03*
G54D18*
X2538Y4379D03*
X2541Y4975D03*
G54D19*
X2604Y4975D03*
G54D20*
X2667Y4975D03*
X2667Y5168D03*
G54D19*
X2604Y5168D03*
G54D18*
X2541Y5168D03*
X2536Y2218D03*
G54D19*
X2599Y2218D03*
G54D20*
X2662Y2218D03*
X2662Y2411D03*
G54D19*
X2599Y2411D03*
G54D18*
X2536Y2411D03*
X2539Y3007D03*
G54D19*
X2602Y3007D03*
G54D20*
X2665Y3007D03*
X2665Y3200D03*
G54D19*
X2602Y3200D03*
G54D18*
X2539Y3200D03*
X2538Y3792D03*
G54D19*
X2601Y3792D03*
G54D20*
X2664Y3792D03*
X2664Y3985D03*
G54D19*
X2601Y3985D03*
G54D18*
X2538Y3985D03*
X2541Y4581D03*
G54D19*
X2604Y4581D03*
G54D20*
X2667Y4581D03*
X2667Y4774D03*
G54D19*
X2604Y4774D03*
G54D18*
X2541Y4774D03*
X5689Y3401D03*
G54D19*
X5752Y3401D03*
G54D20*
X5815Y3401D03*
X5815Y3594D03*
G54D19*
X5752Y3594D03*
G54D18*
X5689Y3594D03*
X5686Y2612D03*
G54D19*
X5749Y2612D03*
G54D20*
X5812Y2612D03*
X5812Y2805D03*
G54D19*
X5749Y2805D03*
G54D18*
X5686Y2805D03*
X5687Y4186D03*
G54D19*
X5750Y4186D03*
G54D20*
X5813Y4186D03*
X5813Y4379D03*
G54D19*
X5750Y4379D03*
G54D18*
X5687Y4379D03*
X5690Y4975D03*
G54D19*
X5753Y4975D03*
G54D20*
X5816Y4975D03*
X5816Y5168D03*
G54D19*
X5753Y5168D03*
G54D18*
X5690Y5168D03*
X5689Y3007D03*
G54D19*
X5752Y3007D03*
G54D20*
X5815Y3007D03*
X5815Y3200D03*
G54D19*
X5752Y3200D03*
G54D18*
X5689Y3200D03*
X5686Y2218D03*
G54D19*
X5749Y2218D03*
G54D20*
X5812Y2218D03*
X5812Y2411D03*
G54D19*
X5749Y2411D03*
G54D18*
X5686Y2411D03*
X5687Y3792D03*
G54D19*
X5750Y3792D03*
G54D20*
X5813Y3792D03*
X5813Y3985D03*
G54D19*
X5750Y3985D03*
G54D18*
X5687Y3985D03*
X5690Y4581D03*
G54D19*
X5753Y4581D03*
G54D20*
X5816Y4581D03*
X5816Y4774D03*
G54D19*
X5753Y4774D03*
G54D18*
X5690Y4774D03*
X6080Y2218D03*
G54D19*
X6143Y2218D03*
G54D20*
X6206Y2218D03*
X6206Y2411D03*
G54D19*
X6143Y2411D03*
G54D18*
X6080Y2411D03*
X6082Y3007D03*
G54D19*
X6145Y3007D03*
G54D20*
X6208Y3007D03*
X6208Y3200D03*
G54D19*
X6145Y3200D03*
G54D18*
X6082Y3200D03*
X6081Y3792D03*
G54D19*
X6144Y3792D03*
G54D20*
X6207Y3792D03*
X6207Y3985D03*
G54D19*
X6144Y3985D03*
G54D18*
X6081Y3985D03*
X6084Y4581D03*
G54D19*
X6147Y4581D03*
G54D20*
X6210Y4581D03*
X6210Y4774D03*
G54D19*
X6147Y4774D03*
G54D18*
X6084Y4774D03*
X6082Y3401D03*
G54D19*
X6145Y3401D03*
G54D20*
X6208Y3401D03*
X6208Y3594D03*
G54D19*
X6145Y3594D03*
G54D18*
X6082Y3594D03*
X6080Y2612D03*
G54D19*
X6143Y2612D03*
G54D20*
X6206Y2612D03*
X6206Y2805D03*
G54D19*
X6143Y2805D03*
G54D18*
X6080Y2805D03*
X6081Y4186D03*
G54D19*
X6144Y4186D03*
G54D20*
X6207Y4186D03*
X6207Y4379D03*
G54D19*
X6144Y4379D03*
G54D18*
X6081Y4379D03*
X6084Y4975D03*
G54D19*
X6147Y4975D03*
G54D20*
X6210Y4975D03*
X6210Y5168D03*
G54D19*
X6147Y5168D03*
G54D18*
X6084Y5168D03*
X2933Y3007D03*
G54D19*
X2996Y3007D03*
G54D20*
X3059Y3007D03*
X3059Y3200D03*
G54D19*
X2996Y3200D03*
G54D18*
X2933Y3200D03*
X2930Y2218D03*
G54D19*
X2993Y2218D03*
G54D20*
X3056Y2218D03*
X3056Y2411D03*
G54D19*
X2993Y2411D03*
G54D18*
X2930Y2411D03*
X2932Y3792D03*
G54D19*
X2995Y3792D03*
G54D20*
X3058Y3792D03*
X3058Y3985D03*
G54D19*
X2995Y3985D03*
G54D18*
X2932Y3985D03*
X2934Y4581D03*
G54D19*
X2997Y4581D03*
G54D20*
X3060Y4581D03*
X3060Y4774D03*
G54D19*
X2997Y4774D03*
G54D18*
X2934Y4774D03*
X2933Y3401D03*
G54D19*
X2996Y3401D03*
G54D20*
X3059Y3401D03*
X3059Y3594D03*
G54D19*
X2996Y3594D03*
G54D18*
X2933Y3594D03*
X2930Y2612D03*
G54D19*
X2993Y2612D03*
G54D20*
X3056Y2612D03*
X3056Y2805D03*
G54D19*
X2993Y2805D03*
G54D18*
X2930Y2805D03*
X2932Y4186D03*
G54D19*
X2995Y4186D03*
G54D20*
X3058Y4186D03*
X3058Y4379D03*
G54D19*
X2995Y4379D03*
G54D18*
X2932Y4379D03*
X2934Y4975D03*
G54D19*
X2997Y4975D03*
G54D20*
X3060Y4975D03*
X3060Y5168D03*
G54D19*
X2997Y5168D03*
G54D18*
X2934Y5168D03*
X3324Y2218D03*
G54D19*
X3387Y2218D03*
G54D20*
X3450Y2218D03*
X3450Y2411D03*
G54D19*
X3387Y2411D03*
G54D18*
X3324Y2411D03*
X3326Y3007D03*
G54D19*
X3389Y3007D03*
G54D20*
X3452Y3007D03*
X3452Y3200D03*
G54D19*
X3389Y3200D03*
G54D18*
X3326Y3200D03*
X3325Y3792D03*
G54D19*
X3388Y3792D03*
G54D20*
X3451Y3792D03*
X3451Y3985D03*
G54D19*
X3388Y3985D03*
G54D18*
X3325Y3985D03*
X3328Y4581D03*
G54D19*
X3391Y4581D03*
G54D20*
X3454Y4581D03*
X3454Y4774D03*
G54D19*
X3391Y4774D03*
G54D18*
X3328Y4774D03*
X6473Y2612D03*
G54D19*
X6536Y2612D03*
G54D20*
X6599Y2612D03*
X6599Y2805D03*
G54D19*
X6536Y2805D03*
G54D18*
X6473Y2805D03*
X6476Y3401D03*
G54D19*
X6539Y3401D03*
G54D20*
X6602Y3401D03*
X6602Y3594D03*
G54D19*
X6539Y3594D03*
G54D18*
X6476Y3594D03*
X6475Y4186D03*
G54D19*
X6538Y4186D03*
G54D20*
X6601Y4186D03*
X6601Y4379D03*
G54D19*
X6538Y4379D03*
G54D18*
X6475Y4379D03*
X6478Y4975D03*
G54D19*
X6541Y4975D03*
G54D20*
X6604Y4975D03*
X6604Y5168D03*
G54D19*
X6541Y5168D03*
G54D18*
X6478Y5168D03*
X3324Y2612D03*
G54D19*
X3387Y2612D03*
G54D20*
X3450Y2612D03*
X3450Y2805D03*
G54D19*
X3387Y2805D03*
G54D18*
X3324Y2805D03*
X3326Y3401D03*
G54D19*
X3389Y3401D03*
G54D20*
X3452Y3401D03*
X3452Y3594D03*
G54D19*
X3389Y3594D03*
G54D18*
X3326Y3594D03*
X3325Y4186D03*
G54D19*
X3388Y4186D03*
G54D20*
X3451Y4186D03*
X3451Y4379D03*
G54D19*
X3388Y4379D03*
G54D18*
X3325Y4379D03*
X3328Y4975D03*
G54D19*
X3391Y4975D03*
G54D20*
X3454Y4975D03*
X3454Y5168D03*
G54D19*
X3391Y5168D03*
G54D18*
X3328Y5168D03*
X6473Y2218D03*
G54D19*
X6536Y2218D03*
G54D20*
X6599Y2218D03*
X6599Y2411D03*
G54D19*
X6536Y2411D03*
G54D18*
X6473Y2411D03*
X6476Y3007D03*
G54D19*
X6539Y3007D03*
G54D20*
X6602Y3007D03*
X6602Y3200D03*
G54D19*
X6539Y3200D03*
G54D18*
X6476Y3200D03*
X6475Y3792D03*
G54D19*
X6538Y3792D03*
G54D20*
X6601Y3792D03*
X6601Y3985D03*
G54D19*
X6538Y3985D03*
G54D18*
X6475Y3985D03*
X6478Y4581D03*
G54D19*
X6541Y4581D03*
G54D20*
X6604Y4581D03*
X6604Y4774D03*
G54D19*
X6541Y4774D03*
G54D18*
X6478Y4774D03*
X3717Y2612D03*
G54D19*
X3780Y2612D03*
G54D20*
X3843Y2612D03*
X3843Y2805D03*
G54D19*
X3780Y2805D03*
G54D18*
X3717Y2805D03*
X3720Y3401D03*
G54D19*
X3783Y3401D03*
G54D20*
X3846Y3401D03*
X3846Y3594D03*
G54D19*
X3783Y3594D03*
G54D18*
X3720Y3594D03*
X3719Y4186D03*
G54D19*
X3782Y4186D03*
G54D20*
X3845Y4186D03*
X3845Y4379D03*
G54D19*
X3782Y4379D03*
G54D18*
X3719Y4379D03*
X3722Y4975D03*
G54D19*
X3785Y4975D03*
G54D20*
X3848Y4975D03*
X3848Y5168D03*
G54D19*
X3785Y5168D03*
G54D18*
X3722Y5168D03*
X6870Y3007D03*
G54D19*
X6933Y3007D03*
G54D20*
X6996Y3007D03*
X6996Y3200D03*
G54D19*
X6933Y3200D03*
G54D18*
X6870Y3200D03*
X6867Y2218D03*
G54D19*
X6930Y2218D03*
G54D20*
X6993Y2218D03*
X6993Y2411D03*
G54D19*
X6930Y2411D03*
G54D18*
X6867Y2411D03*
X6869Y3792D03*
G54D19*
X6932Y3792D03*
G54D20*
X6995Y3792D03*
X6995Y3985D03*
G54D19*
X6932Y3985D03*
G54D18*
X6869Y3985D03*
X6871Y4581D03*
G54D19*
X6934Y4581D03*
G54D20*
X6997Y4581D03*
X6997Y4774D03*
G54D19*
X6934Y4774D03*
G54D18*
X6871Y4774D03*
X6867Y2612D03*
G54D19*
X6930Y2612D03*
G54D20*
X6993Y2612D03*
X6993Y2805D03*
G54D19*
X6930Y2805D03*
G54D18*
X6867Y2805D03*
X6870Y3401D03*
G54D19*
X6933Y3401D03*
G54D20*
X6996Y3401D03*
X6996Y3594D03*
G54D19*
X6933Y3594D03*
G54D18*
X6870Y3594D03*
X6869Y4186D03*
G54D19*
X6932Y4186D03*
G54D20*
X6995Y4186D03*
X6995Y4379D03*
G54D19*
X6932Y4379D03*
G54D18*
X6869Y4379D03*
X6871Y4975D03*
G54D19*
X6934Y4975D03*
G54D20*
X6997Y4975D03*
X6997Y5168D03*
G54D19*
X6934Y5168D03*
G54D18*
X6871Y5168D03*
X3717Y2218D03*
G54D19*
X3780Y2218D03*
G54D20*
X3843Y2218D03*
X3843Y2411D03*
G54D19*
X3780Y2411D03*
G54D18*
X3717Y2411D03*
X3720Y3007D03*
G54D19*
X3783Y3007D03*
G54D20*
X3846Y3007D03*
X3846Y3200D03*
G54D19*
X3783Y3200D03*
G54D18*
X3720Y3200D03*
X3719Y3792D03*
G54D19*
X3782Y3792D03*
G54D20*
X3845Y3792D03*
X3845Y3985D03*
G54D19*
X3782Y3985D03*
G54D18*
X3719Y3985D03*
X3722Y4581D03*
G54D19*
X3785Y4581D03*
G54D20*
X3848Y4581D03*
X3848Y4774D03*
G54D19*
X3785Y4774D03*
G54D18*
X3722Y4774D03*
G54D21*
X3291Y699D03*
X3291Y699D03*
G54D22*
X1053Y444D03*
X1053Y444D03*
G54D18*
X962Y1864D03*
G54D19*
X1025Y1864D03*
G54D20*
X1088Y1864D03*
X1088Y2057D03*
G54D19*
X1025Y2057D03*
G54D18*
X962Y2057D03*
X4111Y1864D03*
G54D19*
X4174Y1864D03*
G54D20*
X4237Y1864D03*
X4237Y2057D03*
G54D19*
X4174Y2057D03*
G54D18*
X4111Y2057D03*
X4505Y1864D03*
G54D19*
X4568Y1864D03*
G54D20*
X4631Y1864D03*
X4631Y2057D03*
G54D19*
X4568Y2057D03*
G54D18*
X4505Y2057D03*
X1355Y1864D03*
G54D19*
X1418Y1864D03*
G54D20*
X1481Y1864D03*
X1481Y2057D03*
G54D19*
X1418Y2057D03*
G54D18*
X1355Y2057D03*
X1749Y1864D03*
G54D19*
X1812Y1864D03*
G54D20*
X1875Y1864D03*
X1875Y2057D03*
G54D19*
X1812Y2057D03*
G54D18*
X1749Y2057D03*
X4899Y1864D03*
G54D19*
X4962Y1864D03*
G54D20*
X5025Y1864D03*
X5025Y2057D03*
G54D19*
X4962Y2057D03*
G54D18*
X4899Y2057D03*
X5292Y1864D03*
G54D19*
X5355Y1864D03*
G54D20*
X5418Y1864D03*
X5418Y2057D03*
G54D19*
X5355Y2057D03*
G54D18*
X5292Y2057D03*
X2143Y1864D03*
G54D19*
X2206Y1864D03*
G54D20*
X2269Y1864D03*
X2269Y2057D03*
G54D19*
X2206Y2057D03*
G54D18*
X2143Y2057D03*
X2537Y1864D03*
G54D19*
X2600Y1864D03*
G54D20*
X2663Y1864D03*
X2663Y2057D03*
G54D19*
X2600Y2057D03*
G54D18*
X2537Y2057D03*
X5686Y1864D03*
G54D19*
X5749Y1864D03*
G54D20*
X5812Y1864D03*
X5812Y2057D03*
G54D19*
X5749Y2057D03*
G54D18*
X5686Y2057D03*
X6080Y1864D03*
G54D19*
X6143Y1864D03*
G54D20*
X6206Y1864D03*
X6206Y2057D03*
G54D19*
X6143Y2057D03*
G54D18*
X6080Y2057D03*
X2930Y1864D03*
G54D19*
X2993Y1864D03*
G54D20*
X3056Y1864D03*
X3056Y2057D03*
G54D19*
X2993Y2057D03*
G54D18*
X2930Y2057D03*
X3324Y1864D03*
G54D19*
X3387Y1864D03*
G54D20*
X3450Y1864D03*
X3450Y2057D03*
G54D19*
X3387Y2057D03*
G54D18*
X3324Y2057D03*
X6474Y1864D03*
G54D19*
X6537Y1864D03*
G54D20*
X6600Y1864D03*
X6600Y2057D03*
G54D19*
X6537Y2057D03*
G54D18*
X6474Y2057D03*
X6867Y1864D03*
G54D19*
X6930Y1864D03*
G54D20*
X6993Y1864D03*
X6993Y2057D03*
G54D19*
X6930Y2057D03*
G54D18*
X6867Y2057D03*
X3718Y1864D03*
G54D19*
X3781Y1864D03*
G54D20*
X3844Y1864D03*
X3844Y2057D03*
G54D19*
X3781Y2057D03*
G54D18*
X3718Y2057D03*
G54D23*
X348Y1591D03*
X348Y1666D03*
X265Y1629D03*
X368Y1985D03*
X368Y2060D03*
X285Y2022D03*
X387Y2339D03*
X387Y2414D03*
X305Y2377D03*
X427Y2733D03*
X427Y2808D03*
X344Y2770D03*
X466Y3127D03*
X466Y3201D03*
X383Y3164D03*
X505Y3520D03*
X505Y3595D03*
X423Y3558D03*
X545Y3914D03*
X545Y3989D03*
X462Y3951D03*
X584Y4308D03*
X584Y4382D03*
X502Y4345D03*
X624Y4701D03*
X624Y4776D03*
X541Y4739D03*
X663Y5095D03*
X663Y5170D03*
X580Y5132D03*
X702Y5489D03*
X702Y5564D03*
X620Y5526D03*
G54D24*
X1752Y782D03*
X1752Y660D03*
X1870Y782D03*
X1870Y660D03*
G54D25*
X6929Y900D03*
X6929Y900D03*
X6929Y487D03*
X6929Y487D03*
X7322Y1048D03*
X7322Y1048D03*
G04 End of Mask1*
M02*