; NON-PLATED HOLES START AT T1
; THROUGH (PLATED) HOLES START AT T100
M48
INCH
T1C0.086614
T100C0.035433
T101C0.015748
T102C0.035000
T103C0.039370
T104C0.052000
T105C0.027559
%
T1
X076275Y002505
X002259Y002505
X076275Y056836
X002259Y056836
T100
X070723Y006048
X070034Y006934
X066334Y006934
X016432Y009245
X067023Y006048
X016432Y006245
T101
X030623Y035272
X003450Y015546
X042810Y009198
X034936Y009198
X029955Y034661
X005015Y011166
X017495Y035215
X009609Y015889
X009621Y039102
X025394Y054920
X065357Y019220
X018151Y042526
X041759Y046598
X013579Y015911
X065990Y019878
X017470Y019843
X029316Y023419
X068682Y031210
X058191Y054826
X042418Y031244
X053529Y038657
X045697Y034739
X022044Y042526
X045686Y042584
X038473Y043060
X052949Y031244
X037835Y030776
X037873Y054386
X026648Y019881
X033255Y054882
X053541Y030805
X056871Y046953
X033877Y022942
X029913Y015377
X010878Y027182
X030585Y031196
X065992Y015946
X022074Y054329
X022714Y023267
X049608Y026809
X022027Y026717
X068658Y019781
X056854Y035280
X025347Y027308
X017472Y015911
X048994Y031278
X069957Y023432
X022110Y046557
X042407Y039096
X041139Y027299
X041719Y015495
X049864Y008516
X037849Y050403
X045061Y043057
X010250Y022957
X060818Y019816
X022050Y050346
X033866Y054386
X014182Y042545
X062090Y035151
X034473Y015759
X033225Y043079
X022093Y030814
X014152Y015320
X054217Y047021
X058172Y035178
X026001Y015453
X018135Y026717
X050250Y027231
X057485Y022813
X030562Y015835
X029301Y050899
X061469Y030838
X014859Y047015
X030212Y004966
X022717Y019729
X056849Y050945
X058149Y015850
X038437Y023343
X064754Y039069
X056826Y027316
X030601Y046939
X014818Y019843
X062087Y023373
X017514Y054863
X060820Y015884
X026645Y027232
X025996Y022923
X045706Y019444
X026024Y030814
X069328Y046459
X034513Y046862
X054189Y039130
X052921Y043091
X050297Y054843
X037187Y035215
X030560Y019767
X022685Y035196
X042435Y046987
X034506Y027117
X065423Y054326
X030595Y027308
X060860Y046987
X037843Y042583
X026650Y015950
X066032Y035233
X041156Y043108
X042384Y035280
X014831Y039124
X050255Y015917
X046356Y047038
X041717Y019427
X062115Y031264
X041088Y023438
X029927Y026698
X068671Y039062
X010277Y034762
X037187Y031215
X064765Y031216
X049636Y030855
X040448Y008509
X029325Y054882
X029306Y035234
X052932Y035246
X014147Y022790
X024295Y008415
X029321Y015950
X018799Y008817
X066050Y054881
X054175Y019849
X019582Y007525
X064742Y015856
X041742Y030855
X018792Y031310
X017484Y039124
X050295Y047021
X041714Y022965
X064741Y043128
X062090Y019835
X052924Y019816
X018132Y038628
X037692Y009198
X006590Y012741
X052938Y039096
X010906Y035145
X070001Y047065
X026062Y054405
X049613Y015495
X041162Y050928
X045072Y031226
X041730Y038708
X010295Y046591
X010851Y019777
X052926Y015884
X017467Y027251
X056843Y039063
X021464Y031367
X045044Y027248
X046312Y023404
X037205Y054863
X013555Y027289
X057519Y026690
X014192Y046423
X009596Y027185
X010876Y031205
X053557Y046548
X068677Y027229
X069305Y026690
X043991Y009198
X048982Y039130
X018121Y015415
X053530Y026792
X056873Y054928
X007771Y013922
X065399Y050343
X030641Y054920
X056843Y043125
X054236Y054860
X042390Y023354
X068705Y035193
X006196Y012347
X026661Y043041
X042023Y009198
X046315Y019866
X045072Y035212
X046317Y015934
X029952Y046481
X036905Y009198
X021436Y027289
X061446Y015478
X010892Y046948
X062108Y054800
X010248Y026798
X064747Y050948
X009649Y046992
X014166Y026736
X021464Y035253
X037824Y038628
X004621Y010773
X060813Y027363
X018116Y022885
X041092Y019900
X033275Y031234
X042393Y019816
X049625Y038708
X014175Y030680
X010922Y050647
X065376Y026714
X064771Y054931
X037164Y015854
X056826Y023320
X005802Y011954
X010278Y030848
X058161Y043023
X045091Y054860
X005409Y011560
X026176Y009592
X025351Y020015
X058144Y027214
X029908Y022847
X041167Y035263
X005425Y034781
X038442Y015873
X013572Y043098
X029295Y043079
X029943Y042506
X045061Y039078
X034468Y023229
X050267Y043040
X041810Y034688
X064753Y035283
X010293Y050664
X018792Y054748
X053546Y042601
X069951Y043015
X053576Y054404
X018158Y050346
X045748Y046615
X033252Y015873
X037158Y023324
X066004Y039159
X065370Y038501
X050250Y023387
X057513Y030703
X054177Y015917
X060841Y035326
X041186Y054911
X022680Y050861
X041133Y047072
X014824Y035234
X058189Y046953
X014818Y050899
X058172Y031210
X014163Y038533
X069962Y035170
X068700Y050858
X069962Y015962
X024498Y009493
X029924Y038590
X004240Y022966
X052951Y054894
X022070Y015453
X069311Y030716
X010267Y038700
X037175Y039067
X007377Y013529
X033921Y046576
X037812Y015415
X056491Y008017
X018764Y023419
X053552Y050421
X021452Y043098
X061440Y034752
X025392Y047187
X009607Y019821
X066003Y027269
X061441Y022948
X014213Y054348
X010894Y042990
X009625Y035149
X034553Y054729
X014150Y019252
X029936Y030738
X022657Y027232
X033250Y019805
X010864Y039058
X014842Y054882
X041116Y031329
X061444Y019410
X013578Y019843
X033893Y038685
X026690Y047053
X017490Y050880
X025375Y035272
X025370Y050937
X052966Y046987
X022759Y046900
X037854Y034738
X038484Y035215
X062062Y027188
X046312Y027265
X057547Y034654
X015251Y004966
X048966Y023387
X038440Y019805
X069288Y015356
X056831Y015850
X041828Y054336
X018762Y042945
X035724Y009198
X046340Y035229
X025375Y031444
X030310Y009099
X018781Y039162
X021439Y019939
X013591Y039124
X045960Y009198
X029326Y009592
X013578Y050918
X055103Y008505
X022674Y043041
X018163Y034680
X034523Y042926
X022742Y031157
X049016Y043159
X014189Y050365
X056829Y019782
X041804Y050353
X021441Y016007
X018769Y015950
X057566Y054302
X017467Y023381
X010265Y042607
X048971Y015917
X050267Y039130
X038465Y031234
X057536Y042499
X069334Y034654
X010295Y054427
X005017Y030855
X018773Y035100
X054189Y027248
X065353Y022758
X034529Y050746
X038456Y027251
X013602Y031272
X026661Y039162
X021480Y047110
X026668Y050861
X044779Y009198
X069286Y019287
X049631Y050438
X013602Y054901
X061429Y042597
X018144Y030776
X068699Y046953
X038479Y050880
X068659Y015850
X041798Y042533
X034485Y038972
X062085Y050817
X025364Y043117
X006593Y046594
X053516Y019376
X046335Y050894
X045044Y023335
X013583Y035253
X030556Y023305
X029319Y019881
X033905Y030833
X006977Y050553
X049611Y019427
X065381Y030649
X066020Y043078
X060843Y031244
X021436Y023477
X030617Y050937
X026013Y038666
X066032Y047050
X013574Y023381
X029950Y050327
X033882Y015473
X037852Y046519
X046340Y031295
X041235Y009198
X026032Y042602
X037807Y022885
X018768Y019881
X066015Y031307
X030573Y039048
X017495Y031272
X037158Y027251
X029974Y054310
X045703Y022982
X022719Y015797
X026015Y026793
X023420Y007820
X060829Y043171
X014815Y023381
X061412Y026788
X003046Y008804
X037175Y043060
X034534Y035081
X018768Y050766
X049636Y034772
X045720Y038725
X006983Y013135
X014820Y015911
X062103Y039116
X056854Y031210
X069973Y039175
X024897Y007820
X049653Y046598
X050254Y019849
X060815Y023354
X064782Y046959
X033847Y034738
X062092Y015903
X009604Y023359
X022055Y034680
X029278Y027270
X033232Y050899
X010848Y023315
X065987Y023416
X037811Y019347
X006174Y042672
X033292Y046977
X054212Y050877
X068693Y043038
X069283Y022825
X026692Y054844
X022731Y039010
X010853Y015845
X062131Y047007
X048999Y027350
X022082Y038666
X064740Y019788
X018745Y027136
X060836Y050992
X050373Y007988
X025979Y009099
X057502Y038556
X018696Y005556
X026041Y046557
X034149Y009198
X029344Y031310
X069957Y050836
X022069Y019385
X014843Y031272
X037181Y050880
X037162Y019786
X021482Y054901
X003832Y019447
X033880Y019404
X049022Y050979
X004227Y010379
X033264Y039086
X026673Y031310
X050273Y050860
X003834Y009985
X034496Y031119
X045708Y015512
X038503Y054863
X038482Y046977
X018119Y019347
X065392Y042523
X021459Y050918
X049655Y054421
X062078Y042997
X026043Y034757
X061485Y046581
X046358Y054877
X069960Y019894
X049010Y047021
X030611Y043117
X042373Y043125
X053518Y015444
X053513Y022914
X004610Y026929
X025364Y039296
X057530Y046446
X045731Y030872
X029361Y047053
X010924Y054639
X025347Y023553
X045669Y026775
X058144Y023320
X069322Y042499
X033209Y027270
X038873Y008410
X069981Y054819
X045047Y019797
X065358Y015288
X013619Y047015
X038454Y039086
X065404Y034678
X049027Y035313
X017484Y043060
X029911Y019309
X045067Y050877
X057490Y015343
X057488Y019275
X030607Y005654
X033237Y035234
X046328Y039147
X069934Y027207
X045692Y050404
X005808Y038750
X069300Y038568
X025352Y016083
X058161Y039063
X064737Y023326
X042356Y027316
X041781Y026724
X009613Y042994
X064725Y027319
X052927Y050911
X021452Y039220
X060832Y039096
X029333Y039162
X034471Y019691
X026038Y050422
X064267Y004867
X050278Y035195
X050278Y031278
X046328Y043074
X018809Y047053
X025999Y019385
X045716Y054387
X033836Y042583
X054217Y035212
X033819Y026774
X053558Y034756
X014812Y043079
X041093Y015968
X065398Y046392
X009632Y031249
X022065Y022923
X061435Y050417
X042379Y050945
X037203Y046958
X009662Y054699
X042395Y015884
X033247Y023343
X049046Y054962
X069328Y050319
X049608Y022965
X068724Y054841
X026673Y035196
X045049Y015865
X068654Y023320
X018160Y046519
X060859Y054974
X052921Y023354
X049625Y042618
X052904Y027282
X069985Y031322
X026645Y023419
X069352Y054302
X061459Y054400
X010255Y015487
X014194Y034700
X054172Y023387
X058167Y050843
X010254Y019419
X018182Y054329
X048969Y019849
X007377Y054489
X056983Y007623
X033842Y050403
X058148Y019782
X057542Y050319
X045089Y046969
X009641Y050651
X042403Y054928
X017512Y047015
X037826Y026774
X054206Y043057
X014796Y027270
X057476Y007229
X054200Y031278
X041105Y039181
X066026Y050898
X022704Y054844
X061457Y038691
T102
X035913Y003990
X034913Y003990
X033913Y006990
X045913Y003990
X038913Y003990
X037913Y003990
X042913Y006990
X065385Y003686
X039913Y003990
X040913Y006990
X032913Y006990
X069385Y007918
X042913Y003990
X041913Y006990
X037913Y006990
X036913Y006990
X033913Y003990
X040913Y003990
X043913Y006990
X032913Y003990
X045913Y006990
X069385Y003686
X035913Y006990
X034913Y006990
X036913Y003990
X041913Y003990
X038913Y006990
X065385Y007918
X044913Y003990
X044913Y006990
X043913Y003990
X039913Y006990
T103
X013527Y006442
X013527Y005442
X010527Y006442
X010527Y004442
X013527Y007442
X013527Y004442
X010527Y005442
X010527Y007442
T104
X066287Y009001
X069287Y004867
X069287Y009001
X073224Y010477
X073224Y007477
X066287Y004867
T105
X039873Y009493
X038873Y009493
X017220Y003292
X016432Y003292
T00
M30
